<svg xmlns="http://www.w3.org/2000/svg" xmlns:xlink="http://www.w3.org/1999/xlink" viewBox="0 0 2132.84 1328.56"><defs><style>.cls-1{fill:none;}.cls-2{clip-path:url(#clip-path);}.cls-3,.cls-6{fill:#f6e24f;}.cls-3,.cls-5{stroke:#231f20;stroke-miterlimit:2.61;}.cls-3{stroke-width:2.28px;}.cls-4{fill:#231f20;}.cls-5{fill:#b0d7e4;stroke-width:1.52px;}</style><clipPath id="clip-path" transform="translate(-52.9)"><rect class="cls-1" y="223.03" width="289" height="1191"/></clipPath></defs><title>Asset 1</title><g id="Layer_2" data-name="Layer 2"><g id="Layer_1-2" data-name="Layer 1"><g class="cls-2"><path class="cls-3" d="M109.8,1081.73l12.5,80.9h54.8a127.42,127.42,0,0,1,236.7-.8h32.6a127.44,127.44,0,0,1,236.4,0h48.7a127.44,127.44,0,0,1,236.4,0h44.8a127.44,127.44,0,0,1,236.4,0h54a127.44,127.44,0,0,1,236.4,0h48.1a127.42,127.42,0,0,1,236.7.8h293.3l27-196.6s-1.4-20.2-10.8-33.6-4-51.2-4-51.2,4-8.1-25.6-16.1-231.5-68.7-231.5-68.7l-79.8-318-70.3-66.5-1438.2-1.2s-129.1,63.2-155.3,240.1-22.4,341.4-22.4,341.4Z" transform="translate(-52.9)"/><path class="cls-4" d="M2140.3,946.33a40.1,40.1,0,0,0-6.3-14.1c-9.4-13.5-4-51.2-4-51.2s4-8.1-25.6-16.1c-7-1.9-23.6-6.7-45-13.1,17.4,9.2,32.5,17.9,35.7,22.2,8.6,11.5.7,38.8.7,43.1s0,10.8,12.2,15.1C2113.1,934,2125.7,940.13,2140.3,946.33Z" transform="translate(-52.9)"/><path class="cls-4" d="M64.7,1082.93h78.5s11.6-1.1,14.4,8.6,10.8,56.5,10.8,56.5,3.3,13.3-13.8,17.2-79.6,1.4-79.6,1.4-16.6-5.8-18.8-19.1-3.3-54.3-3.3-54.3S53.7,1082.33,64.7,1082.93Z" transform="translate(-52.9)"/><path class="cls-4" d="M1760.4,447.33h69.2s18.8,2.1,20.4,17.7-5.9,43.5-3.2,51.6,5.4,28-6.5,34.9c-6.4,3.8-17.2,8.1-25.9,11.4l-21.2-84.6Z" transform="translate(-52.9)"/><path class="cls-4" d="M2069.9,1155l1-51.5s.5-15.3,18.8-17.3,79.2-3.5,79.2-3.5,17.8,3.5,16.8,17.8-12.4,60.9-12.4,60.9,2,7.4-13.4,7.4-89.1-3.7-89.1-3.7Z" transform="translate(-52.9)"/><path class="cls-5" d="M255.5,579.63H414.7s15.3-.7,13.9,12.5-8.3,201.6-8.3,201.6,0,9.7-10.4,10.4l-197.4-1.4s-7.7-3.5-8.4-11.1,9-124.4,11.1-139,14.6-57.7,40.3-73Zm228.2-1.2H694s10.5,1.6,9.4,9.4-11.5,174.7-5.8,204c0,0,2.1,12.6-9.4,13.1s-200.9,1-200.9,1-10-2.1-10.5-8.9-5.2-108.6-5.8-144.8,1.1-59.3,1.1-59.3-1.5-13.5,11.6-14.5Zm298.4,1H949.4s8.9-1.6,10.5,9.4-6.3,200.9-6.3,200.9,1,15.2-8.4,15.2H754.8s-9.4,3.7-11-13.6,2.6-114.3,6.3-126.4,12.6-64.5,32-85.5Zm234.3,1h207.4s13.5-.9,10.9,9.1-9.6,84.1-10,112,.4,91.5.4,91.5,0,10.9-8.3,11.3-194.3-.9-194.3-.9-8.3-5.2-9.6-13.1-11.3-105.4-10-146.8,3-51,3-51-.4-12.1,10.5-12.1Zm267.9-1.7h205.6s8.4,1.4,8.4,11.4.4,205.7.4,205.7-1.3,8.3-7.8,8.3-205.7,1.7-205.7,1.7-10-.9-10.4-10.9,1.7-162.2.4-177-2.2-32.2-2.2-32.2-.8-7.8,11.3-7Zm261.8.5,177.1-2.2s9.1.4,7.4,6.5.9,26.3.9,36.1,7.8,31.4,11.3,43.2,13.7,75.1,17.6,92.8,3.4,37.8,3.4,37.8,3.4,7.9-7.8,9.3-207.7,1.5-207.7,1.5-10.3,0-10.3-7.9,2-117.3,3.4-139.4-1.5-68.3-1.5-68.3S1537.9,583.83,1546.1,579.23Z" transform="translate(-52.9)"/><path class="cls-4" d="M322.4,631.73s7.5,2.7,7.5,4.8.3,5.1.3,5.1,7.5,4.5,10.3,10.6,2.4,19.2,2.4,19.2,5.1,8.2,9.9,9.9,7.2,4.8,6.8,7.5-5.5,3.4-5.5,3.4l.7,3.8s1.7,3.1,1.7,5.1,0,2.7-2,3.1a30.63,30.63,0,0,1-6.2-.3s-1.7,4.5.7,4.8,6.8.3,6.8.3-.3,5.8-3.1,5.5c0,0,0,6.2-3.4,8.6s-13.3,3.1-17.5,3.1H317.1s-3.4.3-3.7,5.1-.7,17.8-.7,17.8a28.6,28.6,0,0,0,7.9.3,110.79,110.79,0,0,1,12.3.3s7.9,0,10.6,10.3,12.7,43.9,12.7,43.9l-74.2.7-1,10.6s-1.4,4.5,3.7,5.1,86.8,10,86.8,10,4.9-3.5,7.6-5.5,8.2-3.3,6.8.5-8.2,8.2-8.2,8.2l17,.3s4.9,3.3.8,4.7-12.6,1.6-12.6,1.6l10.1,7.7s-.5,4.9-5.7,3a71.72,71.72,0,0,1-9.6-4.4l5.2,7.4s1.4,2.7-1.7,2.7-10.4-7.9-10.4-7.9,3,11.2.3,10.1-10.4-11.8-10.4-11.8l-112.2-11.8s-9-2.5-6.5-10.1,31.7-65.7,31.7-65.7,5.2-4.4,8.8-4.6,6.6-2.7,6.6-4.7,2.2-25.2,2.2-25.2l-20.3,1.1s-15.8-6.2-21.3-17.5-13-13.4-13.7-23.3,1-20.3,1.4-27.8,10.3-18.9,16.8-20.2,16.5-5.8,24.4-5.8C286.6,631.73,322.4,631.73,322.4,631.73Z" transform="translate(-52.9)"/><path class="cls-4" d="M1673.8,631.73s7.5,2.7,7.5,4.8a48.16,48.16,0,0,0,.4,5.1s7.5,4.5,10.3,10.6,2.4,19.2,2.4,19.2,5.1,8.2,9.9,9.9,7.2,4.8,6.9,7.5-5.5,3.4-5.5,3.4l.7,3.8s1.7,3.1,1.7,5.1,0,2.7-2.1,3.1a30.63,30.63,0,0,1-6.2-.3s-1.7,4.5.7,4.8,6.8.3,6.8.3-.3,5.8-3.1,5.5c0,0,0,6.2-3.4,8.6s-13.3,3.1-17.4,3.1h-14.7s-3.4.3-3.8,5.1-.7,17.8-.7,17.8a28.6,28.6,0,0,0,7.9.3,110.79,110.79,0,0,1,12.3.3s7.9,0,10.6,10.3,12.7,43.9,12.7,43.9l-74.2.7-1,10.6s-1.4,4.5,3.8,5.1,86.8,10,86.8,10l7.7-5.5c2.7-1.9,8.2-3.3,6.8.5s-8.2,8.2-8.2,8.2l16.9.3s4.9,3.3.9,4.7-12.6,1.6-12.6,1.6l10.1,7.7s-.6,4.9-5.7,3a71.72,71.72,0,0,1-9.6-4.4l5.2,7.4s1.3,2.7-1.7,2.7-10.4-7.9-10.4-7.9,3,11.2.3,10.1-10.4-11.8-10.4-11.8l-112.2-11.8s-9-2.5-6.6-10.1,31.7-65.7,31.7-65.7,5.2-4.4,8.8-4.6,6.6-2.7,6.6-4.7,2.2-25.2,2.2-25.2l-20.3,1.1s-15.8-6.2-21.3-17.5-13-13.4-13.7-23.3,1-20.3,1.4-27.8,10.3-18.9,16.8-20.2,16.5-5.8,24.4-5.8C1637.9,631.73,1673.8,631.73,1673.8,631.73Z" transform="translate(-52.9)"/><path class="cls-4" d="M1132.5,630s7.5,2.7,7.5,4.8.3,5.1.3,5.1,7.5,4.5,10.3,10.6,2.4,19.2,2.4,19.2,5.1,8.2,9.9,9.9,7.2,4.8,6.8,7.6-5.5,3.4-5.5,3.4l.7,3.8s1.7,3.1,1.7,5.1,0,2.7-2.1,3.1a30.63,30.63,0,0,1-6.2-.3s-1.7,4.5.7,4.8,6.9.3,6.9.3-.3,5.8-3.1,5.5c0,0,0,6.2-3.4,8.6s-13.3,3.1-17.4,3.1h-14.7s-3.4.4-3.8,5.1-.7,17.8-.7,17.8a28.6,28.6,0,0,0,7.9.3,110.79,110.79,0,0,1,12.3.3s7.9,0,10.6,10.3,12.7,43.9,12.7,43.9l-74.2.7-1,10.6s-1.4,4.5,3.8,5.1,86.8,10,86.8,10,4.9-3.6,7.7-5.5,8.2-3.3,6.8.5-8.2,8.2-8.2,8.2l17,.3s4.9,3.3.8,4.6-12.6,1.7-12.6,1.7l10.1,7.7s-.5,4.9-5.7,3a71.72,71.72,0,0,1-9.6-4.4l5.2,7.4s1.4,2.7-1.6,2.7-10.4-7.9-10.4-7.9,3,11.2.3,10.1-10.4-11.8-10.4-11.8l-112.2-11.8s-9-2.5-6.6-10.1,31.7-65.7,31.7-65.7,5.2-4.4,8.8-4.6,6.6-2.7,6.6-4.7,2.2-25.2,2.2-25.2l-20.3,1.1s-15.8-6.2-21.3-17.5-13.1-13.4-13.7-23.3,1-20.2,1.4-27.8,10.3-18.9,16.8-20.3,16.5-5.8,24.4-5.8C1096.6,630,1132.5,630,1132.5,630Z" transform="translate(-52.9)"/><path class="cls-4" d="M1405.1,633s7.5,2.7,7.5,4.8a51.05,51.05,0,0,0,.4,5.1s7.5,4.5,10.2,10.6,2.4,19.2,2.4,19.2,5.1,8.2,9.9,9.9,7.2,4.8,6.8,7.5-5.5,3.4-5.5,3.4l.7,3.8s1.7,3.1,1.7,5.1,0,2.7-2,3.1a30.07,30.07,0,0,1-6.2-.3s-1.7,4.5.7,4.8,6.8.3,6.8.3-.4,5.8-3.1,5.5c0,0,0,6.2-3.4,8.6s-13.3,3.1-17.5,3.1h-14.7s-3.4.3-3.8,5.1-.7,17.8-.7,17.8a28.6,28.6,0,0,0,7.9.3,110.79,110.79,0,0,1,12.3.3s7.9,0,10.6,10.3,12.6,43.9,12.6,43.9l-74.2.7-1,10.6s-1.4,4.5,3.7,5.1,86.8,10,86.8,10,4.9-3.6,7.6-5.5,8.2-3.3,6.8.6-8.2,8.2-8.2,8.2l17,.3s4.9,3.3.8,4.7-12.6,1.6-12.6,1.6l10.1,7.7s-.5,4.9-5.8,3a71.72,71.72,0,0,1-9.6-4.4l5.2,7.4s1.4,2.7-1.7,2.7-10.4-7.9-10.4-7.9,3,11.2.3,10.1-10.4-11.8-10.4-11.8l-112.2-11.8s-9-2.5-6.6-10.1,31.7-65.7,31.7-65.7,5.2-4.4,8.8-4.7,6.6-2.7,6.6-4.7,2.2-25.2,2.2-25.2l-20.3,1.1s-15.8-6.2-21.3-17.5-13.1-13.4-13.7-23.3,1-20.3,1.4-27.8,10.3-18.9,16.8-20.3,16.5-5.8,24.4-5.8C1369.2,633,1405.1,633,1405.1,633Z" transform="translate(-52.9)"/><path class="cls-4" d="M576.9,634.83s7.5,2.7,7.5,4.8.3,5.1.3,5.1,7.5,4.5,10.3,10.6,2.4,19.2,2.4,19.2,5.2,8.2,9.9,9.9,7.2,4.8,6.8,7.5-5.5,3.4-5.5,3.4l.7,3.8s1.7,3.1,1.7,5.1,0,2.7-2.1,3.1a30.07,30.07,0,0,1-6.2-.3s-1.7,4.5.7,4.8,6.9.3,6.9.3-.3,5.8-3.1,5.5c0,0,0,6.2-3.4,8.6s-13.3,3.1-17.4,3.1H571.7s-3.4.3-3.8,5.1-.7,17.8-.7,17.8a28.6,28.6,0,0,0,7.9.3,110.79,110.79,0,0,1,12.3.3s7.9,0,10.6,10.3S610.7,807,610.7,807l-74.2.7-1,10.6s-1.4,4.5,3.8,5.1,86.8,10,86.8,10,4.9-3.6,7.7-5.5,8.2-3.3,6.9.5-8.2,8.2-8.2,8.2l17,.3s4.9,3.3.8,4.7-12.6,1.6-12.6,1.6l10.1,7.7s-.6,4.9-5.7,3a71.72,71.72,0,0,1-9.6-4.4l5.2,7.4s1.4,2.7-1.6,2.7-10.4-7.9-10.4-7.9,3,11.2.3,10.1S615.6,850,615.6,850l-112.2-11.8s-9-2.5-6.6-10.1,31.7-65.7,31.7-65.7,5.2-4.4,8.7-4.7,6.6-2.7,6.6-4.7,2.2-25.2,2.2-25.2l-20.3,1.1s-15.8-6.2-21.3-17.5-13-13.4-13.7-23.3,1-20.2,1.4-27.8,10.3-18.9,16.8-20.3,16.5-5.8,24.4-5.8C541,634.83,576.9,634.83,576.9,634.83Z" transform="translate(-52.9)"/><path class="cls-4" d="M857.3,634.83s7.5,2.7,7.5,4.8.3,5.1.3,5.1,7.5,4.5,10.3,10.6,2.4,19.2,2.4,19.2,5.1,8.2,9.9,9.9,7.2,4.8,6.8,7.5-5.5,3.4-5.5,3.4l.7,3.8s1.7,3.1,1.7,5.1,0,2.7-2,3.1a30.07,30.07,0,0,1-6.2-.3s-1.7,4.5.7,4.8,6.8.3,6.8.3-.3,5.8-3.1,5.5c0,0,0,6.2-3.4,8.6s-13.4,3.1-17.5,3.1H852s-3.4.3-3.8,5.1-.7,17.8-.7,17.8a28.6,28.6,0,0,0,7.9.3,110.79,110.79,0,0,1,12.3.3s7.9,0,10.6,10.3S891,807,891,807l-74.2.7-1,10.6s-1.4,4.5,3.8,5.1,86.8,10,86.8,10,4.9-3.6,7.7-5.5,8.2-3.3,6.8.5-8.2,8.2-8.2,8.2l17,.3s4.9,3.3.8,4.7-12.6,1.6-12.6,1.6l10.1,7.7s-.6,4.9-5.8,3a71.72,71.72,0,0,1-9.6-4.4l5.2,7.4s1.4,2.7-1.6,2.7-10.4-7.9-10.4-7.9,3,11.2.3,10.1S895.7,850,895.7,850l-112.1-11.8s-9-2.5-6.6-10.1,31.7-65.7,31.7-65.7,5.2-4.4,8.7-4.7S824,755,824,753s2.2-25.2,2.2-25.2l-20.3,1.1s-15.8-6.2-21.3-17.5-13-13.4-13.7-23.3,1-20.3,1.4-27.8,10.3-18.9,16.8-20.3,16.5-5.8,24.4-5.8C821.4,634.83,857.3,634.83,857.3,634.83Z" transform="translate(-52.9)"/><path class="cls-4" d="M376.7,1111.43l-.7,30.1a123.16,123.16,0,0,0-14.4,10.3c-8,6.5-5,5.7-11,9.5s-14.1,11.1-14.1,11.1a119.07,119.07,0,0,1-2.3,37.7c-4.6,19.8-6.8,32.4-7.6,43.1s3.1,21.7,3.1,21.7,11.4,11.1,16.3,13.3,11,8,20.5,10.3,20.5,12.2,10.3,16-22.4,5-33.8-.4-14.8-6.5-18.3-3.1-9.5,8.8-17.5,5.3-7.6-8-6.1-19.1,6.1-21.3,4.2-29.3-5.3-21-8-33.9-4.2-30.9-4.2-30.9-28.9,9.5-33.1,34.7c0,0-.8,31.2.7,34.3s8,16.8,8,16.8,3.8,6.9-3,5.7-16.4-4.2-20.1-7.2-4.6-10.3-9.5-20.2-11.4-22.9-13.7-26.7-8.7-14.5-.4-18.3,33.5-18.3,39.9-29.3,24-53.7,62.7-67.5c0,0,6.9-1.9,2.7-5.3s-17.5-18.7-17.9-22.1a110.7,110.7,0,0,1,0-11.8l2.1-3.4a126.62,126.62,0,0,1,65.2,28.2v.4Zm111.8,171.3s13.8,22.1,16.9,25.2,11.3,8.7,11.3,8.7,13.4,1.7,11.2,7.4-23.8,6.5-33.3-.9-23.4-13-32.5-14.8-15.1-11.7-10.4-19.1,10-13.4,12.5-27.8,4.8-56.4,14.7-76.8,17.7-29.9,17.7-29.9l5.1-56.2a127.37,127.37,0,0,1,123.4-1.3l4,12.9s2.1,14.7,3,24.7,3.5,19.5,7.4,26.9,23.8,59,26.8,71.1,9.1,28.2,9.1,28.2,7.4,11.3,17.8,13,29.8-.4,29.8-.4,11.7-.9,6.1,5.2-25.1,10.8-32.5,16-9.9,12.6-17.3,13-20.3,3.5-20.3-4.8,5.2-15.6-6.9-29.5-41.5-52-47.6-71.6-9.5-42.1-11.3-48.1-4.3-13.9-13-23.8a83.47,83.47,0,0,1-13-20.4s-3.5-5.6-5.6-.9-19,37.3-19,37.3l-10,17.3s.4,8.2-4.3,14.3-10.4,9.5-10.8,13a180.9,180.9,0,0,1-8.2,34.3c-5.2,14.3-17.7,35.6-17.7,35.6s-7.9,11.8-3.1,22.2Zm280.3,0c-4.8-10.4,3-22.1,3-22.1s12.5-21.2,17.7-35.6a180.9,180.9,0,0,0,8.2-34.3c.4-3.5,6.1-6.9,10.8-13s4.3-14.3,4.3-14.3l10-17.3s16.9-32.5,19-37.3,5.6.9,5.6.9a83.47,83.47,0,0,0,13,20.4c8.7,10,11.3,17.8,13,23.8s5.2,28.6,11.3,48.1,35.5,57.7,47.6,71.6,6.9,21.2,6.9,29.5,13,5.2,20.3,4.8,10-7.8,17.3-13,26.8-10,32.5-16-6.1-5.2-6.1-5.2-19.5,2.2-29.8.4-17.8-13-17.8-13-6.1-16-9.1-28.2-22.9-63.7-26.8-71.1-6.5-16.9-7.4-26.9-3-24.7-3-24.7l-4.9-15.8a127.55,127.55,0,0,0-122.8,7.2l-4.8,53.2s-7.8,9.5-17.7,29.9-12.1,62.4-14.7,76.8-7.8,20.4-12.6,27.8,1.3,17.3,10.4,19.1,22.9,7.4,32.5,14.8,31.2,6.5,33.3.9-11.3-7.4-11.3-7.4-8.2-5.6-11.3-8.7c-2.8-3.2-16.6-25.3-16.6-25.3Zm285.2,0s13.8,22.1,16.9,25.2,11.3,8.7,11.3,8.7,13.4,1.7,11.2,7.4-23.8,6.5-33.3-.9-23.4-13-32.5-14.8-15.1-11.7-10.4-19.1,9.9-13.4,12.5-27.8,4.8-56.4,14.7-76.8,17.7-29.9,17.7-29.9l5-55.7a127.66,127.66,0,0,1,123.3-2.4l4.2,13.4s2.2,14.7,3,24.7,3.5,19.5,7.4,26.9,23.8,59,26.8,71.1,9.1,28.2,9.1,28.2,7.4,11.3,17.8,13,29.8-.4,29.8-.4,11.7-.9,6.1,5.2-25.1,10.8-32.4,16-10,12.6-17.3,13-20.3,3.5-20.3-4.8,5.2-15.6-6.9-29.5-41.5-52-47.6-71.6-9.5-42.1-11.3-48.1-4.3-13.9-13-23.8a83.47,83.47,0,0,1-13-20.4s-3.5-5.6-5.6-.9-19,37.3-19,37.3l-9.9,17.3s.4,8.2-4.3,14.3-10.4,9.5-10.8,13a180.9,180.9,0,0,1-8.2,34.3c-5.2,14.3-17.7,35.6-17.7,35.6s-8.1,11.9-3.3,22.3Zm283.6,0c-4.8-10.4,3.1-22.1,3.1-22.1s12.6-21.2,17.7-35.6a180.9,180.9,0,0,0,8.2-34.3c.4-3.5,6.1-6.9,10.8-13s4.3-14.3,4.3-14.3l10-17.3s16.9-32.5,19.1-37.3,5.6.9,5.6.9a83.47,83.47,0,0,0,13,20.4c8.7,10,11.3,17.8,13,23.8s5.2,28.6,11.2,48.1,35.5,57.7,47.6,71.6,6.9,21.2,6.9,29.5,13,5.2,20.3,4.8,10-7.8,17.3-13,26.8-10,32.4-16-6.1-5.2-6.1-5.2-19.5,2.2-29.9.4-17.8-13-17.8-13-6.1-16-9.1-28.2-22.9-63.7-26.8-71.1-6.5-16.9-7.4-26.9-3-24.7-3-24.7l-5.4-17.4a127.49,127.49,0,0,0-122.5,10.9l-4.6,51.1s-7.8,9.5-17.7,29.9-12.1,62.4-14.7,76.8-7.8,20.4-12.5,27.8,1.3,17.3,10.4,19.1,23,7.4,32.5,14.8,31.1,6.5,33.3.9-11.2-7.4-11.2-7.4-8.3-5.6-11.3-8.7-16.7-25.3-16.7-25.3Zm413.3-171.3-.8,30.1a123.16,123.16,0,0,0-14.4,10.3c-8,6.5-5,5.7-11,9.5s-14.1,11.1-14.1,11.1a119.07,119.07,0,0,1-2.3,37.7c-4.6,19.8-6.9,32.4-7.6,43.1s3,21.7,3,21.7,11.4,11.1,16.4,13.3,11,8,20.5,10.3,20.5,12.2,10.3,16-22.4,5-33.9-.4-14.8-6.5-18.2-3.1-9.5,8.8-17.5,5.3-7.6-8-6.1-19.1,6.1-21.3,4.2-29.3-5.3-21-8-33.9-4.2-30.9-4.2-30.9-28.9,9.5-33.1,34.7c0,0-.7,31.2.8,34.3s8,16.8,8,16.8,3.8,6.9-3,5.7-16.3-4.2-20.2-7.2-4.6-10.3-9.5-20.2-11.4-22.9-13.7-26.7-8.7-14.5-.4-18.3,33.4-18.3,39.9-29.3,24-53.7,62.7-67.5c0,0,6.8-1.9,2.7-5.3s-17.5-18.7-17.9-22.1a110.7,110.7,0,0,1,0-11.8l1.7-2.6a128.24,128.24,0,0,1,62.6,5.3,10.7,10.7,0,0,1,3.1,2.3C1752.8,1095.13,1750.9,1111.43,1750.9,1111.43Z" transform="translate(-52.9)"/><path class="cls-4" d="M237.9,998.73v-74.2H210.2v-9.9h66.7v9.9H249v74.2Zm50.7,0v-84.2h11.1v34.6h43.7v-34.6h11.2v84.2H343.4V959H299.7v39.7Zm84.8,0v-84.2h60.8v9.9H384.5v25.8h46.6v9.9H384.5v28.7h51.7v9.9Zm125.6,0-22.3-84.2h11.4l12.8,55.2c1.4,5.8,2.5,11.5,3.5,17.2,2.2-9,3.4-14.2,3.8-15.6l16-56.8h13.4l12,42.6a224,224,0,0,1,6.5,29.8q1.65-7.95,4.2-18.3l13.2-54.1h11.2l-23.1,84.2H551l-17.7-64.1c-1.5-5.4-2.4-8.7-2.6-9.9-.9,3.9-1.7,7.2-2.5,9.9l-17.8,64.1Zm82.6,0h11.8l9.2-25.5h35.2l9.8,25.5h12.7l-34.5-84.2h-12l-32.2,84.2Zm24.3-34.6,9.3-24.7a104.4,104.4,0,0,0,4.5-16.1c1.3,4.6,3.3,10.4,6,17.5l8.8,23.3Zm62.9,34.6v-84.2H680v74.2h41.4v9.9H668.8Zm65.4,0v-84.2h11.2v41.7l41.8-41.7h15.1L767,948.63l36.9,50.1H789.2l-30-42.6-13.8,13.5v29.2H734.2Zm80.8,0v-84.2h11.1v84.2Zm30.6,0v-84.2H857l44.2,66.1v-66.1h10.7v84.2H900.5l-44.2-66.1v66.1Zm124.5-33v-9.9l35.7-.1v31.2a64.32,64.32,0,0,1-17,9.9,50.21,50.21,0,0,1-17.9,3.3,47.88,47.88,0,0,1-22.5-5.3,34.81,34.81,0,0,1-15.3-15.3,47.83,47.83,0,0,1-5.2-22.5,51,51,0,0,1,5.2-22.9,33.49,33.49,0,0,1,14.8-15.8,46.65,46.65,0,0,1,22.2-5.2,43.31,43.31,0,0,1,16.5,3,28,28,0,0,1,11.6,8.2c2.8,3.5,4.9,8.1,6.4,13.8l-10.1,2.8c-1.3-4.3-2.8-7.7-4.7-10.1a19.71,19.71,0,0,0-8-5.9,29.25,29.25,0,0,0-11.6-2.2A35,35,0,0,0,957,925a26,26,0,0,0-9,6.1,29.28,29.28,0,0,0-5.3,8.3,44.61,44.61,0,0,0-3.2,16.9c0,7.5,1.3,13.8,3.9,18.8a24.74,24.74,0,0,0,11.3,11.3,35.85,35.85,0,0,0,15.7,3.7,36.56,36.56,0,0,0,14.1-2.8,34,34,0,0,0,10.4-5.9v-15.7Zm80.9,6,10.5-.9a22.48,22.48,0,0,0,3.5,10.4,18.08,18.08,0,0,0,8.5,6.5,31.26,31.26,0,0,0,12.9,2.5,30.43,30.43,0,0,0,11.3-1.9,15.82,15.82,0,0,0,7.3-5.2,12,12,0,0,0,2.4-7.2,10.65,10.65,0,0,0-2.3-6.9c-1.5-2-4.1-3.6-7.6-4.9a135.18,135.18,0,0,0-15-4.1c-7.7-1.9-13.2-3.6-16.3-5.2a23.21,23.21,0,0,1-9-7.8,18.87,18.87,0,0,1-2.9-10.5,21.55,21.55,0,0,1,3.6-11.9,22.45,22.45,0,0,1,10.6-8.4,40.24,40.24,0,0,1,15.4-2.9,42.24,42.24,0,0,1,16.5,3,24.36,24.36,0,0,1,11,8.9,26.06,26.06,0,0,1,4.1,13.3l-10.7.8c-.6-5.3-2.5-9.3-5.8-12.1s-8.2-4.1-14.7-4.1c-6.7,0-11.6,1.2-14.7,3.7a11.14,11.14,0,0,0-4.6,8.9,9.71,9.71,0,0,0,3.3,7.5c2.2,2,7.7,4,16.8,6s15.3,3.8,18.6,5.4c4.9,2.3,8.5,5.1,10.9,8.6a21.39,21.39,0,0,1,3.5,12,23.55,23.55,0,0,1-3.8,12.7,26.22,26.22,0,0,1-11.1,9.3,38.45,38.45,0,0,1-16.2,3.3c-7.6,0-14-1.1-19.1-3.3a26,26,0,0,1-12.1-10,29.13,29.13,0,0,1-4.8-15.5Zm142.3-2.5,11.2,2.8c-2.3,9.1-6.6,16.1-12.6,20.9s-13.5,7.2-22.3,7.2c-9.1,0-16.4-1.8-22.1-5.5a35.18,35.18,0,0,1-13-16,56.59,56.59,0,0,1-4.4-22.6c0-8.8,1.7-16.4,5-22.9a34.33,34.33,0,0,1,14.3-14.9,41.73,41.73,0,0,1,20.4-5.1c8.4,0,15.5,2.1,21.2,6.4s9.7,10.3,12,18.1l-11,2.6c-2-6.1-4.8-10.6-8.5-13.4s-8.4-4.2-14-4.2c-6.5,0-11.9,1.6-16.2,4.6a24.5,24.5,0,0,0-9.1,12.5,49,49,0,0,0-2.7,16.1,51.46,51.46,0,0,0,3.1,18.8,23.81,23.81,0,0,0,9.7,12,27.8,27.8,0,0,0,14.3,4,23.85,23.85,0,0,0,15.8-5.4c4.4-3.6,7.3-8.9,8.9-16Zm25.2,29.5v-84.2h11.1v34.6h43.7v-34.6h11.2v84.2h-11.2V959h-43.7v39.7Zm81.1-41c0-14,3.7-24.9,11.3-32.8S1328.1,913,1340,913a40.48,40.48,0,0,1,21,5.6,36.94,36.94,0,0,1,14.3,15.5,50,50,0,0,1,4.9,22.6,48.89,48.89,0,0,1-5.2,22.9,35.42,35.42,0,0,1-14.6,15.3,41.28,41.28,0,0,1-20.4,5.2,39.83,39.83,0,0,1-21.2-5.7,36.54,36.54,0,0,1-14.2-15.7,46.38,46.38,0,0,1-5-21Zm11.5.2c0,10.2,2.7,18.1,8.2,24a27.14,27.14,0,0,0,20.5,8.8c8.4,0,15.3-2.9,20.7-8.8s8.1-14.3,8.1-25.1a43.3,43.3,0,0,0-3.5-17.9,26.44,26.44,0,0,0-10.2-11.9,27.82,27.82,0,0,0-15-4.2,28.64,28.64,0,0,0-20.4,8.1c-5.5,5.3-8.4,14.3-8.4,27Zm80-.2c0-14,3.7-24.9,11.2-32.8s17.2-11.9,29.1-11.9a40.48,40.48,0,0,1,21,5.6,36.94,36.94,0,0,1,14.3,15.5,54.26,54.26,0,0,1-.2,45.5,35.42,35.42,0,0,1-14.6,15.3,41.28,41.28,0,0,1-20.4,5.2,39.83,39.83,0,0,1-21.2-5.7,37.17,37.17,0,0,1-14.2-15.7,45.13,45.13,0,0,1-5-21Zm11.5.2c0,10.2,2.7,18.1,8.2,24a27.14,27.14,0,0,0,20.5,8.8c8.4,0,15.3-2.9,20.7-8.8s8.1-14.3,8.1-25.1a43.3,43.3,0,0,0-3.5-17.9,26.44,26.44,0,0,0-10.2-11.9,27.58,27.58,0,0,0-15-4.2,28.64,28.64,0,0,0-20.4,8.1q-8.4,8-8.4,27Zm82.9,40.8v-84.2h11.1v74.2h41.5v9.9h-52.6Zm93.7,0v-84.2h31.6c6.4,0,11.6.9,15.5,2.5a19.47,19.47,0,0,1,9.1,7.9,20.52,20.52,0,0,1,3.3,11.1,19.11,19.11,0,0,1-2.9,10.1,20.9,20.9,0,0,1-8.8,7.7c5.1,1.5,9,4,11.7,7.6a20.84,20.84,0,0,1,4.1,12.8,24.31,24.31,0,0,1-2.5,11,21.85,21.85,0,0,1-6.2,7.9,26,26,0,0,1-9.2,4.1,58,58,0,0,1-13.6,1.4h-32.1Zm11.1-48.8h18.2c4.9,0,8.5-.3,10.6-1a11.33,11.33,0,0,0,6.4-4.2,12.48,12.48,0,0,0,2.2-7.4,14.13,14.13,0,0,0-2-7.4,10.85,10.85,0,0,0-5.7-4.4c-2.5-.8-6.8-1.2-12.8-1.2h-16.8v25.6Zm0,38.9h20.9a45.2,45.2,0,0,0,7.6-.4,17.82,17.82,0,0,0,6.4-2.3,12.34,12.34,0,0,0,4.3-4.7,14.9,14.9,0,0,0,1.7-7.1,14.14,14.14,0,0,0-2.4-8.2,13,13,0,0,0-6.7-4.9,43.21,43.21,0,0,0-12.3-1.4h-19.5v29Zm123-74.3h11.2v48.6c0,8.4-1,15.2-2.9,20.1a24.3,24.3,0,0,1-10.4,12.1c-5,3.1-11.5,4.7-19.7,4.7-7.9,0-14.3-1.4-19.3-4.1a22.81,22.81,0,0,1-10.7-11.8c-2.1-5.1-3.2-12.2-3.2-21.1v-48.6h11.1V963c0,7.3.7,12.7,2,16.1a15.63,15.63,0,0,0,7,8,24.2,24.2,0,0,0,12.2,2.8c8.2,0,14-1.9,17.5-5.6s5.2-10.8,5.2-21.4v-48.4Zm25.9,57.2,10.5-.9a22.48,22.48,0,0,0,3.5,10.4,18.08,18.08,0,0,0,8.5,6.5,31.26,31.26,0,0,0,12.9,2.5,29.88,29.88,0,0,0,11.2-1.9,15.82,15.82,0,0,0,7.3-5.2,12,12,0,0,0,2.4-7.2,11.24,11.24,0,0,0-2.3-6.9c-1.5-2-4-3.6-7.6-4.9a128.73,128.73,0,0,0-15-4.1c-7.7-1.9-13.1-3.6-16.2-5.2a23.21,23.21,0,0,1-9-7.8,19.72,19.72,0,0,1-2.9-10.5,21.55,21.55,0,0,1,3.6-11.9,22.18,22.18,0,0,1,10.5-8.4,40.24,40.24,0,0,1,15.4-2.9,42.24,42.24,0,0,1,16.5,3,23.85,23.85,0,0,1,11,8.9,26.06,26.06,0,0,1,4.1,13.3l-10.7.8c-.6-5.3-2.5-9.3-5.8-12.1s-8.2-4.1-14.7-4.1c-6.7,0-11.6,1.2-14.7,3.7a11.14,11.14,0,0,0-4.6,8.9,9.71,9.71,0,0,0,3.3,7.5c2.2,2,7.7,4,16.8,6s15.3,3.8,18.6,5.4c4.9,2.3,8.5,5.1,10.9,8.6a21.39,21.39,0,0,1,3.5,12,23.55,23.55,0,0,1-3.8,12.7,26.22,26.22,0,0,1-11.1,9.3,38.45,38.45,0,0,1-16.2,3.3c-7.6,0-14-1.1-19.1-3.3a26.47,26.47,0,0,1-12.1-10A29.92,29.92,0,0,1,1739.2,971.73Z" transform="translate(-52.9)"/><path class="cls-4" d="M1477.1,72.63c0-3.7-15.9-44.4-15.9-44.4s-4.5-17.5,1.2-9.4,18.7,40.7,18.7,40.7,5.3,10.2,5.7,13.4c.4,3.4-5.3,8.3-9.7-.3Zm49.4-15.5c1.8-3.2,7.8-46.5,7.8-46.5s4.6-17.5,5.6-7.6-3.6,44.7-3.6,44.7-.4,11.5-1.6,14.5-8.4,4.5-8.2-5.1Zm47.8,4.8c3-2.1,27.3-38.4,27.3-38.4s11.8-13.7,8.4-4.4-22.7,38.7-22.7,38.7-5.3,10.2-7.8,12.4-9.7.3-5.2-8.3ZM1610.9,82c-6.9,6.8-.5,10.8,2.5,9.4s11.2-9.4,11.2-9.4,27.3-22,33.5-29.8-9.3,1.6-9.3,1.6S1614.4,81,1610.9,82Zm28.5,40.2c4.5-.5,52.3-25.2,52.3-25.2s20.9-7.8,11.6.3-47.4,28.2-47.4,28.2-11.8,7.8-15.7,8.7-10.7-5.5-.8-12Zm-220.7,18.4c-3.5-1.9-50.5-8.3-50.5-8.3s-19-5-8.3-6.1,48.5,3.7,48.5,3.7,12.5.3,15.8,1.7,5,9.3-5.5,9Zm13.7-44.8c-1.9-3.5-38-34.3-38-34.3s-13.3-14.5-3.6-9.6,38.8,29.4,38.8,29.4,10.3,7,12.3,9.9-.8,10.5-9.5,4.6Zm217.2,70.9c4.1,1.8,57.9,3.3,57.9,3.3s22,3.3,10,5.9-55.2,1.7-55.2,1.7-14.1,1.1-18,0-6.6-9.9,5.3-10.9Zm-13,50.8c3.1,3.2,52.3,25.2,52.3,25.2s19.1,11.5,7,9.3-51.6-19.6-51.6-19.6-13.4-4.4-16.6-6.9-2.4-11.7,8.9-8Zm-42.2,39.9c-6.7-9.8-13-3-12,1s9,15.6,9,15.6,20.8,37.9,29,47,.1-11.6.1-11.6-25.5-47.5-26.1-52Zm-53.7,18c-1.4,3.7-.9,50.3-.9,50.3s-2.1,19.2-4.7,8.9-3.3-47.7-3.3-47.7-1.4-12.2-.6-15.6,8.3-6.1,9.5,4.1Zm-54-5.2c-3,2.5-25.2,43.5-25.2,43.5s-11.2,15.7-8.5,5.5,20.3-43.3,20.3-43.3,4.7-11.3,7-13.9,10.3-1.4,6.4,8.2Zm-44.4-34.6c-3.4,1.1-36.2,28.5-36.2,28.5s-14.8,9.6-9,1.8S1429,236,1429,236s7.8-8,10.7-9.4,9.1,2.2,2.6,9Zm-19.6-49.8c-3.8.2-45,18.8-45,18.8s-17.9,5.6-9.8-.8,41.1-21.5,41.1-21.5,10.3-6,13.6-6.6S1431.3,180.73,1422.7,185.83Z" transform="translate(-52.9)"/><path class="cls-4" d="M1517.1,76.93s48.6,0,60.4,8.8,22.1,17.7,31.4,25.1,15.2,23.1,17.7,38.8-3.5,49.6-5.9,56.5-7.4,16.7-19.2,22.6-45.2,19.7-51.1,22.6-24.6,7.4-40.3,3.4-20.6-10.8-29-11.8-15.7-10.3-22.6-21.6-24.1-33.9-24.1-57,8.4-37.3,25.1-58C1476.4,85.83,1498.9,81.43,1517.1,76.93Z" transform="translate(-52.9)"/><path class="cls-6" d="M1522,86.83s-28,4.9-50.1,33.9-20.1,39.3-14.2,62.4,57.5,43.2,57.5,43.2,21.1,4.9,53.5-12.3,32.4-42.8,30.5-53.6-14.2-40.8-32.9-49.1-46.2-3.4-64.4,16.7-22.6,30-14.3,53.6,28.5,29.5,38.3,28.5,32-9.8,43.2-23.6,12.8-32.4.5-44.7-39.3-8.3-53.1-.5-12.3,18.7-10.3,32.9,19.2,17.2,27.5,15.2,27-14.3,23.6-25.6-19.1-16.2-23.1-14.7-11.3,2.5-9.8,18.7c0,0,1.9,8.4,3.9,3.4s1.5-11.8,8.8-11.3,15.2,0,12.8,7.9-16.7,19.2-25.1,15.2-17.2-8.3-12.3-25.1,25.6-19.2,36.9-17.2,22.1,9.3,23.6,21.6-10.3,20.6-22.1,27.5-30,16.7-41.8,5.9-22.1-21.1-19.7-37.8,30-39.3,43.7-41.8,40.8,6.4,51.1,20.2,10.8,39.8,3,52.1-30.5,29-60.5,31.4c0,0-40.3-7.4-54.1-25.6s-18.2-32.4-6.4-54.5,36.4-37.8,56.5-41.8,41.3-6.4,59.9,2.5,25.5,16.7,33.4,45.7-.5,58.5-6.9,64.9-16.2,17.7-31.5,20.6-23.1,6.9-31.9,11.3-30,7.4-45.7,2-36.4-23.6-40.8-36.4-18.7-19.2-17.7-46.2,14.3-43.2,21.1-49.1,16.7-16.7,25.1-19.7C1496.5,90.73,1535.8,76.93,1522,86.83Z" transform="translate(-52.9)"/></g></g></g></svg>