<svg xmlns="http://www.w3.org/2000/svg" xmlns:xlink="http://www.w3.org/1999/xlink" viewBox="0 0 1121 1307.15"><defs><style>.cls-8{isolation:isolate}</style><linearGradient id="linear-gradient" x1="545.69" x2="572.83" y1="764.65" y2="764.65" gradientTransform="matrix(1 0 0 -1 0 1566.3)" gradientUnits="userSpaceOnUse"><stop offset="0" stop-color="#595959"/><stop offset=".13" stop-color="#afafae"/><stop offset=".37" stop-color="#fff"/><stop offset=".66" stop-color="#878786"/><stop offset=".85" stop-color="#454543"/></linearGradient><linearGradient id="linear-gradient-2" x1="559.3" x2="559.3" y1="326.87" y2="485.07" gradientTransform="matrix(1 0 0 -1 0 1566.3)" gradientUnits="userSpaceOnUse"><stop offset="0"/><stop offset="1" stop-opacity="0"/></linearGradient><linearGradient id="linear-gradient-3" x1="134.36" x2="134.36" y1="-403.58" y2="-284.84" gradientTransform="matrix(-1 0 0 1 693.61 936.26)" xlink:href="#linear-gradient-2"/><linearGradient id="linear-gradient-4" x1="134.36" x2="134.36" y1="-561.81" y2="-507.03" gradientTransform="matrix(-1 0 0 1 693.61 926.13)" xlink:href="#linear-gradient-2"/><linearGradient id="linear-gradient-5" x1="542.1" x2="576.4" y1="1217.6" y2="1217.6" gradientTransform="matrix(1 0 0 -1 0 1566.3)" gradientUnits="userSpaceOnUse"><stop offset="0" stop-color="#595959"/><stop offset=".16" stop-color="#afafae"/><stop offset=".38" stop-color="#fff"/><stop offset=".67" stop-color="#878786"/><stop offset=".87" stop-color="#454543"/></linearGradient><radialGradient id="radial-gradient" cx="634.89" cy="710.97" r="43.37" gradientTransform="matrix(.68 0 0 -1.47 111.6 1384.97)" gradientUnits="userSpaceOnUse"><stop offset="0" stop-opacity="0"/><stop offset="1"/></radialGradient><linearGradient id="linear-gradient-6" x1="345.48" x2="775.43" y1="1351.2" y2="1351.2" gradientTransform="matrix(1 0 0 -1 0 1566.3)" gradientUnits="userSpaceOnUse"><stop offset="0" stop-color="#fbd93b"/><stop offset="1" stop-color="#fbb50a"/></linearGradient><linearGradient id="linear-gradient-7" x1="345.35" x2="775.55" y1="1351.2" y2="1351.2" gradientTransform="matrix(1 0 0 -1 0 1566.3)" gradientUnits="userSpaceOnUse"><stop offset="0" stop-color="gray"/><stop offset=".95" stop-color="#363636"/></linearGradient><linearGradient id="linear-gradient-8" x1="-449.64" x2="-428.97" y1="597.44" y2="597.44" gradientTransform="matrix(0 1 1 0 -36.94 835.75)" xlink:href="#linear-gradient-2"/><radialGradient id="radial-gradient-2" cx="557.46" cy="1177.55" r="9" gradientTransform="matrix(1 0 0 -1 0 1566.3)" gradientUnits="userSpaceOnUse"><stop offset="0" stop-color="#f0f0ef"/><stop offset=".1" stop-color="#d3d3d2"/><stop offset=".63" stop-color="#afafae"/><stop offset="1" stop-color="#545454"/></radialGradient><linearGradient id="linear-gradient-9" x1="572.02" x2="460.59" y1="1334.25" y2="1455.29" gradientTransform="matrix(1 0 0 -1 0 1566.3)" gradientUnits="userSpaceOnUse"><stop offset="0" stop-color="#fff"/><stop offset="1" stop-color="#fff" stop-opacity="0"/></linearGradient><linearGradient id="linear-gradient-10" x1="-799.36" x2="-778.68" y1="597.44" y2="597.44" gradientTransform="matrix(0 1 1 0 -36.94 835.75)" xlink:href="#linear-gradient-2"/><radialGradient id="radial-gradient-3" cx="557.46" cy="1527.27" r="9" xlink:href="#radial-gradient-2"/></defs><g id="Layer_2" data-name="Layer 2"><g id="Layer_1-2" data-name="Layer 1"><path fill="url(#linear-gradient)" d="M572.8 1240.25a47 47 0 0 1-13.6 2.4 38.41 38.41 0 0 1-13.6-2.4v-879.6h27.1v879.6z"/><path fill="url(#linear-gradient-2)" style="isolation:isolate" d="M545.7 1079.35v160.9s4.4 2.4 13.6 2.4a35.17 35.17 0 0 0 13.6-2.4v-160.9z" opacity=".75"/><path fill="url(#linear-gradient-3)" d="M545.7 530.25h27.1v122.6h-27.1z" opacity=".5" style="isolation:isolate"/><path fill="url(#linear-gradient-4)" d="M545.7 363.25h27.1v56.5h-27.1z" opacity=".5" style="isolation:isolate"/><path fill="url(#linear-gradient-5)" d="M542.1 334.15h34.3v29.1h-34.3z"/><path fill="url(#radial-gradient)" d="M542.1 334.15h34.3v29.1h-34.3z" opacity=".3" style="isolation:isolate"/><path fill="url(#linear-gradient-6)" d="M772.5 208.05a10 10 0 0 1 0 14.1l-205 205a10 10 0 0 1-14.1 0l-205-205a10 10 0 0 1 0-14.1l205-205a10 10 0 0 1 14.1 0z"/><path fill="none" stroke="url(#linear-gradient-7)" stroke-miterlimit="10" stroke-width=".25" d="M772.5 208.05a10 10 0 0 1 0 14.1l-205 205a10 10 0 0 1-14.1 0l-205-205a10 10 0 0 1 0-14.1l205-205a10 10 0 0 1 14.1 0z"/><path fill="none" stroke="#000" stroke-miterlimit="10" stroke-width="2" d="M756.1 208.65a9.17 9.17 0 0 1 0 13L567 410.75a9.17 9.17 0 0 1-13 0l-189.1-189.1a9.17 9.17 0 0 1 0-13L554 19.55a9.17 9.17 0 0 1 13 0z"/><path fill="url(#linear-gradient-8)" style="isolation:isolate" d="M560.5 406.75c-3.7 0-6.7-10.3-6.7-14a6.7 6.7 0 0 1 13.4 0c0 3.7-3 14-6.7 14z" opacity=".2"/><path fill="url(#radial-gradient-2)" d="M567.3 390.75a6.8 6.8 0 1 1-6.8-6.8 6.94 6.94 0 0 1 6.8 6.8z"/><path fill="url(#linear-gradient-9)" d="M672 121.75a10 10 0 0 0 0-14.1L567.6 3.15a10 10 0 0 0-14.1 0l-205 205a10 10 0 0 0 0 14.1L453 326.75a10 10 0 0 0 14.1 0z" opacity=".15"/><path fill="url(#linear-gradient-10)" style="isolation:isolate" d="M560.5 57.05c-3.7 0-6.7-10.3-6.7-14a6.7 6.7 0 0 1 13.4 0c0 3.7-3 14-6.7 14z" opacity=".2"/><path fill="url(#radial-gradient-3)" d="M567.3 41.05a6.8 6.8 0 1 1-6.8-6.8 6.81 6.81 0 0 1 6.8 6.8z"/><text font-family="Arial-BoldMT,Arial" font-size="153.47" font-weight="700" style="isolation:isolate" transform="translate(425.23 275.6)">404</text></g></g></svg>