<svg width="200" height="480" xmlns="http://www.w3.org/2000/svg" xmlns:xlink="http://www.w3.org/1999/xlink">
 <style type="text/css">.st0{fill-rule:evenodd;clip-rule:evenodd;fill:#00B7E2;}
	.st1{fill:url(#SVGID_1_);}
	.st2{opacity:0.75;fill:url(#SVGID_2_);}
	.st3{opacity:0.5;fill:url(#SVGID_3_);}
	.st4{opacity:0.5;fill:url(#SVGID_4_);}
	.st5{fill:url(#SVGID_5_);}
	.st6{opacity:0.3;fill:url(#SVGID_6_);}
	.st7{opacity:0.1;}
	.st8{opacity:0.2;}
	.st9{fill:url(#SVGID_7_);}
	.st10{fill:none;stroke:url(#SVGID_8_);stroke-width:0.25;stroke-miterlimit:10;}
	.st11{fill:none;stroke:#000000;stroke-width:2;stroke-miterlimit:10;}
	.st12{opacity:0.2;fill:url(#SVGID_9_);}
	.st13{fill:url(#SVGID_10_);}
	.st14{opacity:0.15;}
	.st15{fill:url(#SVGID_11_);}
	.st16{opacity:0.2;fill:url(#SVGID_12_);}
	.st17{fill:url(#SVGID_13_);}
	.st18{clip-path:url(#SVGID_15_);}
	.st19{fill-rule:evenodd;clip-rule:evenodd;fill:#F6E24F;stroke:#231F20;stroke-width:2.2795;stroke-miterlimit:2.6131;}
	.st20{fill-rule:evenodd;clip-rule:evenodd;fill:#231F20;}
	.st21{fill-rule:evenodd;clip-rule:evenodd;fill:#B0D7E4;stroke:#231F20;stroke-width:1.5197;stroke-miterlimit:2.6131;}
	.st22{fill-rule:evenodd;clip-rule:evenodd;fill:#F6E24F;}
	.st23{font-family:'Arial-BoldMT';}
	.st24{font-size:93.8417px;}
	.st25{fill:#FFFFFF;}
	.st26{font-size:44.8079px;}</style>
 <g>
  <title>background</title>
  <rect fill="none" id="canvas_background" height="482" width="202" y="-1" x="-1"/>
 </g>
 <g>
  <title>Layer 1</title>
  <defs transform="translate(-49,43) translate(115,-128) translate(-126,86) translate(-396,-177) ">
   <rect height="486" width="186" y="284" x="1734" id="SVGID_14_"/>
  </defs>
  <clipPath transform="translate(-49,43) translate(115,-128) translate(-126,86) translate(-396,-177) " id="SVGID_15_">
   <use id="svg_30" xlink:href="#SVGID_14_"/>
  </clipPath>
  <g id="svg_56">
   <path id="svg_32" d="m29.333255,329.829513l5.1,33l22.4,0c7.6,-19.3 26.4,-32.9 48.4,-32.9c21.8,0 40.5,13.5 48.2,32.6l13.3,0c7.7,-19.1 26.4,-32.6 48.2,-32.6c21.8,0 40.5,13.5 48.2,32.6l19.9,0c7.7,-19.1 26.4,-32.6 48.2,-32.6c21.8,0 40.6,13.5 48.2,32.6l18.3,0c7.7,-19.1 26.4,-32.6 48.2,-32.6c21.8,0 40.5,13.5 48.2,32.6l22,0c7.7,-19.1 26.4,-32.6 48.2,-32.6c21.8,0 40.5,13.5 48.2,32.6l19.6,0c7.7,-19.1 26.4,-32.6 48.2,-32.6c22,0 40.8,13.6 48.4,32.9l119.7,0l11,-80.2c0,0 -0.6,-8.2 -4.4,-13.7c-3.9,-5.5 -1.6,-20.9 -1.6,-20.9s1.6,-3.3 -10.4,-6.6c-12.1,-3.3 -94.5,-28 -94.5,-28l-32.6,-129.7l-28.7,-27.1l-586.9,-0.5c0,0 -52.7,25.8 -63.4,98c-10.7,72.2 -9.1,139.3 -9.1,139.3l1.5,36.4z" class="st19"/>
   <path id="svg_33" d="m860.933255,274.629513c-0.4,-1.9 -1.3,-4 -2.6,-5.7c-3.9,-5.5 -1.6,-20.9 -1.6,-20.9s1.6,-3.3 -10.4,-6.6c-2.8,-0.8 -9.6,-2.8 -18.4,-5.3c7.1,3.7 13.2,7.3 14.6,9.1c3.5,4.7 0.3,15.8 0.3,17.6c0,1.8 0,4.4 5,6.2c2,0.5 7.1,3 13.1,5.6z" class="st20"/>
   <path id="svg_34" d="m13.933255,330.329513l32,0c0,0 4.7,-0.4 5.9,3.5c1.1,4 4.4,23.1 4.4,23.1s1.4,5.4 -5.6,7c-7,1.6 -32.5,0.6 -32.5,0.6s-6.8,-2.4 -7.7,-7.8c-0.9,-5.4 -1.4,-22.2 -1.4,-22.2s0.4,-4.5 4.9,-4.2z" class="st20"/>
   <path id="svg_35" d="m705.833255,70.929513l28.2,0c0,0 7.7,0.9 8.3,7.2c0.7,6.4 -2.4,17.8 -1.3,21.1c1.1,3.3 2.2,11.4 -2.6,14.3c-2.6,1.5 -7,3.3 -10.6,4.6l-8.7,-34.5l-13.3,-12.7z" class="st20"/>
   <path id="svg_36" d="m832.133255,359.729513l0.4,-21c0,0 0.2,-6.3 7.7,-7.1c7.5,-0.8 32.3,-1.4 32.3,-1.4s7.3,1.4 6.9,7.3c-0.4,5.9 -5,24.8 -5,24.8s0.8,3 -5.5,3c-6.3,0 -36.4,-1.5 -36.4,-1.5l-0.4,-4.1z" class="st20"/>
   <path id="svg_37" d="m91.833255,124.929513l65,0c0,0 6.2,-0.3 5.7,5.1c-0.6,5.4 -3.4,82.3 -3.4,82.3s0,4 -4.3,4.3l-80.6,-0.6c0,0 -3.1,-1.4 -3.4,-4.5c-0.3,-3.1 3.7,-50.8 4.5,-56.7c0.9,-6.1 6,-23.7 16.5,-29.9l0,0zm93.1,-0.5l85.8,0c0,0 4.3,0.6 3.9,3.9c-0.4,3.2 -4.7,71.3 -2.4,83.3c0,0 0.9,5.1 -3.9,5.4c-4.7,0.2 -82,0.4 -82,0.4s-4.1,-0.9 -4.3,-3.6c-0.2,-2.8 -2.1,-44.3 -2.4,-59.1c-0.2,-14.8 0.4,-24.2 0.4,-24.2s-0.5,-5.6 4.9,-6.1l0,0zm121.7,0.5l68.3,0c0,0 3.6,-0.6 4.3,3.9c0.6,4.5 -2.6,82 -2.6,82s0.4,6.2 -3.4,6.2c-3.8,0 -77.7,0 -77.7,0s-3.9,1.5 -4.5,-5.6c-0.7,-7.1 1.1,-46.7 2.6,-51.6c1.5,-5 5.1,-26.4 13,-34.9l0,0zm95.7,0.4l84.6,0c0,0 5.5,-0.4 4.4,3.7c-1.1,4.1 -3.9,34.3 -4.1,45.7c-0.2,11.4 0.2,37.3 0.2,37.3s0,4.4 -3.4,4.6c-3.4,0.2 -79.3,-0.4 -79.3,-0.4s-3.4,-2.1 -3.9,-5.3c-0.5,-3.2 -4.6,-43 -4.1,-59.9c0.5,-16.9 1.2,-20.8 1.2,-20.8s-0.1,-4.9 4.4,-4.9l0,0zm109.3,-0.8l83.9,0c0,0 3.4,0.6 3.4,4.6c0,4.1 0.2,83.9 0.2,83.9s-0.5,3.4 -3.2,3.4c-2.7,0 -84,0.7 -84,0.7s-4.1,-0.4 -4.2,-4.4c-0.2,-4.1 0.7,-66.2 0.2,-72.2c-0.5,-6 -0.9,-13.1 -0.9,-13.1s-0.4,-3.2 4.6,-2.9l0,0zm106.8,0.2l72.2,-0.9c0,0 3.7,0.2 3,2.7c-0.7,2.5 0.4,10.7 0.4,14.7s3.2,12.8 4.6,17.6c1.4,4.8 5.6,30.6 7.2,37.9c1.6,7.2 1.4,15.4 1.4,15.4s1.4,3.2 -3.2,3.8c-4.6,0.6 -84.8,0.6 -84.8,0.6s-4.2,0 -4.2,-3.2c0,-3.2 0.8,-47.9 1.4,-56.9c0.6,-9 -0.6,-27.9 -0.6,-27.9s-0.7,-1.9 2.6,-3.8z" class="st21"/>
   <g id="svg_38">
    <path id="svg_39" d="m119.133255,146.229513c0,0 3.1,1.1 3.1,2c0,0.8 0.1,2.1 0.1,2.1s3.1,1.8 4.2,4.3c1.1,2.5 1,7.8 1,7.8s2.1,3.4 4.1,4.1c1.9,0.7 2.9,2 2.8,3.1c-0.1,1.1 -2.2,1.4 -2.2,1.4l0.3,1.5c0,0 0.7,1.3 0.7,2.1c0,0.8 0,1.1 -0.8,1.3c-0.8,0.1 -2.5,-0.1 -2.5,-0.1s-0.7,1.8 0.3,2c1,0.1 2.8,0.1 2.8,0.1s-0.1,2.4 -1.2,2.2c0,0 0,2.5 -1.4,3.5c-1.4,1 -5.4,1.3 -7.1,1.3c-1.7,0 -6,0 -6,0s-1.4,0.1 -1.5,2.1c-0.1,2 -0.3,7.3 -0.3,7.3s1.3,0.3 3.2,0.1c1.9,-0.1 5,0.1 5,0.1s3.2,0 4.3,4.2c1.1,4.2 5.2,17.9 5.2,17.9l-30.3,0.3l-0.4,4.3c0,0 -0.6,1.8 1.5,2.1c2.1,0.3 35.4,4.1 35.4,4.1s2,-1.4 3.1,-2.2c1.1,-0.8 3.4,-1.3 2.8,0.2c-0.6,1.6 -3.3,3.3 -3.3,3.3l6.9,0.1c0,0 2,1.3 0.3,1.9c-1.7,0.6 -5.1,0.7 -5.1,0.7l4.1,3.1c0,0 -0.2,2 -2.3,1.2c-2.1,-0.8 -3.9,-1.8 -3.9,-1.8l2.1,3c0,0 0.6,1.1 -0.7,1.1c-1.2,0 -4.2,-3.2 -4.2,-3.2s1.2,4.6 0.1,4.1c-1.1,-0.4 -4.2,-4.8 -4.2,-4.8l-45.8,-4.8c0,0 -3.7,-1 -2.7,-4.1c1,-3.1 12.9,-26.8 12.9,-26.8s2.1,-1.8 3.6,-1.9c1.5,-0.1 2.7,-1.1 2.7,-1.9c0,-0.8 0.9,-10.3 0.9,-10.3l-8.3,0.5c0,0 -6.4,-2.5 -8.7,-7.1c-2.2,-4.6 -5.3,-5.5 -5.6,-9.5c-0.3,-4.1 0.4,-8.3 0.6,-11.3c0.1,-3.1 4.2,-7.7 6.9,-8.3c2.7,-0.6 6.7,-2.4 9.9,-2.4c2.9,0 17.6,0 17.6,0z" class="st20"/>
    <path id="svg_40" d="m670.533255,146.229513c0,0 3.1,1.1 3.1,2c0,0.8 0.1,2.1 0.1,2.1s3.1,1.8 4.2,4.3c1.1,2.5 1,7.8 1,7.8s2.1,3.4 4,4.1c2,0.7 2.9,2 2.8,3.1c-0.1,1.1 -2.2,1.4 -2.2,1.4l0.3,1.5c0,0 0.7,1.3 0.7,2.1c0,0.8 0,1.1 -0.8,1.3c-0.8,0.1 -2.5,-0.1 -2.5,-0.1s-0.7,1.8 0.3,2c1,0.1 2.8,0.1 2.8,0.1s-0.1,2.4 -1.3,2.2c0,0 0,2.5 -1.4,3.5c-1.4,1 -5.4,1.3 -7.1,1.3s-6,0 -6,0s-1.4,0.1 -1.5,2.1c-0.1,2 -0.3,7.3 -0.3,7.3s1.3,0.3 3.2,0.1c2,-0.1 5,0.1 5,0.1s3.2,0 4.3,4.2c1.1,4.2 5.2,17.9 5.2,17.9l-30.3,0.3l-0.4,4.3c0,0 -0.6,1.8 1.5,2.1c2.1,0.3 35.4,4.1 35.4,4.1s2,-1.4 3.1,-2.2c1.1,-0.8 3.4,-1.3 2.8,0.2c-0.6,1.6 -3.4,3.3 -3.4,3.3l6.9,0.1c0,0 2,1.3 0.4,1.9c-1.7,0.6 -5.1,0.7 -5.1,0.7l4.1,3.1c0,0 -0.2,2 -2.3,1.2c-2.1,-0.8 -3.9,-1.8 -3.9,-1.8l2.1,3c0,0 0.5,1.1 -0.7,1.1c-1.2,0 -4.2,-3.2 -4.2,-3.2s1.2,4.6 0.1,4.1c-1.1,-0.4 -4.2,-4.8 -4.2,-4.8l-45.8,-4.8c0,0 -3.7,-1 -2.7,-4.1c1,-3.1 12.9,-26.8 12.9,-26.8s2.1,-1.8 3.6,-1.9c1.4,-0.1 2.7,-1.1 2.7,-1.9c0,-0.8 0.9,-10.3 0.9,-10.3l-8.3,0.5c0,0 -6.4,-2.5 -8.7,-7.1c-2.2,-4.6 -5.3,-5.5 -5.6,-9.5c-0.3,-4.1 0.4,-8.3 0.6,-11.3c0.1,-3.1 4.2,-7.7 6.9,-8.3c2.7,-0.6 6.7,-2.4 9.9,-2.4c3.2,0 17.8,0 17.8,0z" class="st20"/>
    <path id="svg_41" d="m449.633255,145.529513c0,0 3.1,1.1 3.1,2c0,0.8 0.1,2.1 0.1,2.1s3.1,1.8 4.2,4.3c1.1,2.5 1,7.8 1,7.8s2.1,3.4 4.1,4.1c1.9,0.7 2.9,2 2.8,3.1c-0.1,1.1 -2.2,1.4 -2.2,1.4l0.3,1.5c0,0 0.7,1.3 0.7,2.1c0,0.8 0,1.1 -0.8,1.3c-0.8,0.1 -2.5,-0.1 -2.5,-0.1s-0.7,1.8 0.3,2c1,0.1 2.8,0.1 2.8,0.1s-0.1,2.4 -1.3,2.2c0,0 0,2.5 -1.4,3.5c-1.4,1 -5.4,1.3 -7.1,1.3s-6,0 -6,0s-1.4,0.1 -1.5,2.1c-0.1,2 -0.3,7.3 -0.3,7.3s1.3,0.3 3.2,0.1c1.9,-0.1 5,0.1 5,0.1s3.2,0 4.3,4.2c1.1,4.2 5.2,17.9 5.2,17.9l-30.3,0.3l-0.4,4.3c0,0 -0.6,1.8 1.5,2.1c2.1,0.3 35.4,4.1 35.4,4.1s2,-1.5 3.1,-2.2c1.1,-0.8 3.4,-1.3 2.8,0.2c-0.6,1.6 -3.3,3.3 -3.3,3.3l6.9,0.1c0,0 2,1.3 0.3,1.9c-1.7,0.6 -5.1,0.7 -5.1,0.7l4.1,3.1c0,0 -0.2,2 -2.3,1.2c-2.1,-0.8 -3.9,-1.8 -3.9,-1.8l2.1,3c0,0 0.6,1.1 -0.7,1.1c-1.2,0 -4.2,-3.2 -4.2,-3.2s1.2,4.6 0.1,4.1c-1.1,-0.4 -4.2,-4.8 -4.2,-4.8l-45.8,-4.8c0,0 -3.7,-1 -2.7,-4.1c1,-3.1 13,-26.8 13,-26.8s2.1,-1.8 3.6,-1.9c1.5,-0.1 2.7,-1.1 2.7,-1.9c0,-0.8 0.9,-10.3 0.9,-10.3l-8.3,0.5c0,0 -6.4,-2.5 -8.7,-7.1c-2.2,-4.6 -5.3,-5.5 -5.6,-9.5c-0.3,-4.1 0.4,-8.3 0.6,-11.3c0.1,-3.1 4.2,-7.7 6.9,-8.3c2.7,-0.6 6.7,-2.4 9.9,-2.4c3,0 17.6,0 17.6,0z" class="st20"/>
    <path id="svg_42" d="m560.933255,146.729513c0,0 3.1,1.1 3.1,2c0,0.8 0.1,2.1 0.1,2.1s3.1,1.8 4.2,4.3c1.1,2.5 1,7.8 1,7.8s2.1,3.4 4,4.1c2,0.7 2.9,2 2.8,3.1c-0.1,1.1 -2.2,1.4 -2.2,1.4l0.3,1.5c0,0 0.7,1.3 0.7,2.1c0,0.8 0,1.1 -0.8,1.3c-0.8,0.1 -2.5,-0.1 -2.5,-0.1s-0.7,1.8 0.3,2c1,0.1 2.8,0.1 2.8,0.1s-0.1,2.4 -1.3,2.2c0,0 0,2.5 -1.4,3.5c-1.4,1 -5.4,1.3 -7.1,1.3c-1.7,0 -6,0 -6,0s-1.4,0.1 -1.5,2.1c-0.1,2 -0.3,7.3 -0.3,7.3s1.3,0.3 3.2,0.1c2,-0.1 5,0.1 5,0.1s3.2,0 4.3,4.2c1.1,4.2 5.2,17.9 5.2,17.9l-30.3,0.3l-0.4,4.3c0,0 -0.6,1.8 1.5,2.1c2.1,0.3 35.4,4.1 35.4,4.1s2,-1.5 3.1,-2.2c1.1,-0.8 3.4,-1.3 2.8,0.2c-0.6,1.6 -3.4,3.3 -3.4,3.3l6.9,0.1c0,0 2,1.3 0.3,1.9c-1.7,0.6 -5.1,0.7 -5.1,0.7l4.1,3.1c0,0 -0.2,2 -2.3,1.2c-2.1,-0.8 -3.9,-1.8 -3.9,-1.8l2.1,3c0,0 0.6,1.1 -0.7,1.1c-1.2,0 -4.2,-3.2 -4.2,-3.2s1.2,4.6 0.1,4.1c-1.1,-0.4 -4.2,-4.8 -4.2,-4.8l-45.8,-4.8c0,0 -3.7,-1 -2.7,-4.1c1,-3.1 12.9,-26.8 12.9,-26.8s2.1,-1.8 3.6,-1.9c1.5,-0.1 2.7,-1.1 2.7,-1.9c0,-0.8 0.9,-10.3 0.9,-10.3l-8.3,0.5c0,0 -6.4,-2.5 -8.7,-7.1c-2.2,-4.6 -5.3,-5.5 -5.6,-9.5c-0.3,-4.1 0.4,-8.3 0.6,-11.3c0.1,-3.1 4.2,-7.7 6.9,-8.3c2.7,-0.6 6.7,-2.4 9.9,-2.4c3.2,0 17.9,0 17.9,0z" class="st20"/>
    <path id="svg_43" d="m222.933255,147.529513c0,0 3.1,1.1 3.1,2c0,0.8 0.1,2.1 0.1,2.1s3.1,1.8 4.2,4.3c1.1,2.5 1,7.8 1,7.8s2.1,3.4 4,4.1c2,0.7 2.9,2 2.8,3.1c-0.1,1.1 -2.2,1.4 -2.2,1.4l0.3,1.5c0,0 0.7,1.3 0.7,2.1s0,1.1 -0.8,1.3c-0.8,0.1 -2.5,-0.1 -2.5,-0.1s-0.7,1.8 0.3,2c1,0.1 2.8,0.1 2.8,0.1s-0.1,2.4 -1.3,2.2c0,0 0,2.5 -1.4,3.5c-1.4,1 -5.4,1.3 -7.1,1.3c-1.7,0 -6,0 -6,0s-1.4,0.1 -1.5,2.1c-0.1,2 -0.3,7.3 -0.3,7.3s1.3,0.3 3.2,0.1c2,-0.1 5,0.1 5,0.1s3.2,0 4.3,4.2c1.1,4.2 5.2,17.9 5.2,17.9l-30.3,0.3l-0.4,4.3c0,0 -0.6,1.8 1.5,2.1c2.1,0.3 35.4,4.1 35.4,4.1s2,-1.5 3.1,-2.2c1.1,-0.8 3.4,-1.3 2.8,0.2c-0.6,1.6 -3.4,3.4 -3.4,3.4l6.9,0.1c0,0 2,1.3 0.3,1.9c-1.7,0.6 -5.1,0.7 -5.1,0.7l4.1,3.1c0,0 -0.2,2 -2.3,1.2c-2.1,-0.8 -3.9,-1.8 -3.9,-1.8l2.1,3c0,0 0.6,1.1 -0.7,1.1c-1.2,0 -4.2,-3.2 -4.2,-3.2s1.2,4.6 0.1,4.1c-1.1,-0.4 -4.2,-4.8 -4.2,-4.8l-45.8,-4.8c0,0 -3.7,-1 -2.7,-4.1c1,-3.1 13,-26.8 13,-26.8s2.1,-1.8 3.6,-1.9c1.5,-0.1 2.7,-1.1 2.7,-1.9s0.9,-10.3 0.9,-10.3l-8.3,0.5c0,0 -6.4,-2.5 -8.7,-7.1c-2.2,-4.6 -5.3,-5.5 -5.6,-9.5c-0.3,-4.1 0.4,-8.3 0.6,-11.3c0.1,-3.1 4.2,-7.7 6.9,-8.3c2.7,-0.6 6.7,-2.4 9.9,-2.4c3.2,-0.2 17.8,-0.1 17.8,-0.1z" class="st20"/>
    <path id="svg_44" d="m337.333255,147.529513c0,0 3.1,1.1 3.1,2c0,0.8 0.1,2.1 0.1,2.1s3.1,1.8 4.2,4.3c1.1,2.5 1,7.8 1,7.8s2.1,3.4 4,4.1c2,0.7 2.9,2 2.8,3.1c-0.1,1.1 -2.2,1.4 -2.2,1.4l0.3,1.5c0,0 0.7,1.3 0.7,2.1s0,1.1 -0.8,1.3c-0.8,0.1 -2.5,-0.1 -2.5,-0.1s-0.7,1.8 0.3,2c1,0.1 2.8,0.1 2.8,0.1s-0.1,2.4 -1.3,2.2c0,0 0,2.5 -1.4,3.5c-1.4,1 -5.5,1.3 -7.1,1.3c-1.7,0 -6,0 -6,0s-1.4,0.1 -1.5,2.1c-0.1,2 -0.3,7.3 -0.3,7.3s1.3,0.3 3.2,0.1c2,-0.1 5,0.1 5,0.1s3.2,0 4.3,4.2c1.1,4.2 5.2,17.9 5.2,17.9l-30.3,0.3l-0.4,4.3c0,0 -0.6,1.8 1.5,2.1c2.1,0.3 35.4,4.1 35.4,4.1s2,-1.5 3.1,-2.2c1.1,-0.8 3.3,-1.3 2.8,0.2c-0.6,1.6 -3.4,3.4 -3.4,3.4l6.9,0.1c0,0 2,1.3 0.3,1.9c-1.7,0.6 -5.1,0.7 -5.1,0.7l4.1,3.1c0,0 -0.2,2 -2.4,1.2c-2.1,-0.8 -3.9,-1.8 -3.9,-1.8l2.1,3c0,0 0.6,1.1 -0.7,1.1c-1.2,0 -4.2,-3.2 -4.2,-3.2s1.2,4.6 0.1,4.1c-1.1,-0.4 -4.2,-4.8 -4.2,-4.8l-45.8,-4.8c0,0 -3.7,-1 -2.7,-4.1c1,-3.1 13,-26.8 13,-26.8s2.1,-1.8 3.6,-1.9c1.5,-0.1 2.7,-1.1 2.7,-1.9s0.9,-10.3 0.9,-10.3l-8.3,0.5c0,0 -6.4,-2.5 -8.7,-7.1c-2.2,-4.6 -5.3,-5.5 -5.6,-9.5c-0.3,-4.1 0.4,-8.3 0.6,-11.3c0.1,-3.1 4.2,-7.7 6.9,-8.3c2.7,-0.6 6.7,-2.4 9.9,-2.4c3.3,-0.2 17.9,-0.1 17.9,-0.1z" class="st20"/>
   </g>
   <path id="svg_45" d="m141.233255,341.929513l-0.3,12.3c0,0 -2.6,1.6 -5.9,4.2c-3.3,2.6 -2,2.3 -4.5,3.9c-2.5,1.6 -5.7,4.5 -5.7,4.5s0.9,7.3 -0.9,15.4c-1.9,8.1 -2.8,13.2 -3.1,17.6c-0.3,4.4 1.2,8.9 1.2,8.9s4.6,4.5 6.7,5.4c2,0.9 4.5,3.3 8.4,4.2c3.9,0.9 8.4,5 4.2,6.5c-4.2,1.6 -9.2,2 -13.8,-0.2c-4.6,-2.2 -6.1,-2.6 -7.4,-1.2c-1.4,1.4 -3.9,3.6 -7.1,2.2c-3.3,-1.4 -3.1,-3.3 -2.5,-7.8c0.6,-4.5 2.5,-8.7 1.7,-12c-0.8,-3.3 -2.2,-8.6 -3.3,-13.8c-1.1,-5.3 -1.7,-12.6 -1.7,-12.6s-11.8,3.9 -13.5,14.2c0,0 -0.3,12.7 0.3,14c0.6,1.2 3.3,6.8 3.3,6.8s1.6,2.8 -1.2,2.3c-2.8,-0.5 -6.7,-1.7 -8.2,-3c-1.6,-1.2 -1.9,-4.2 -3.9,-8.2c-2,-4 -4.7,-9.3 -5.6,-10.9c-0.9,-1.6 -3.6,-5.9 -0.2,-7.5c3.4,-1.6 13.7,-7.5 16.3,-12c2.6,-4.5 9.8,-21.9 25.6,-27.5c0,0 2.8,-0.8 1.1,-2.2c-1.7,-1.4 -7.1,-7.6 -7.3,-9c-0.2,-1.4 0,-4.8 0,-4.8l0.9,-1.4c10,1.2 19.2,5.4 26.6,11.5l-0.2,0.2l0,0zm45.6,69.9c0,0 5.6,9 6.9,10.3c1.2,1.2 4.6,3.5 4.6,3.5s5.5,0.7 4.6,3c-0.9,2.3 -9.7,2.7 -13.6,-0.4c-3.9,-3 -9.5,-5.3 -13.2,-6s-6.2,-4.8 -4.2,-7.8c1.9,-3 4.1,-5.5 5.1,-11.3c1.1,-5.8 2,-23 6,-31.3c4.1,-8.3 7.2,-12.2 7.2,-12.2l2.1,-22.9c7.6,-4.3 16.3,-6.8 25.7,-6.8c8.9,0 17.3,2.3 24.7,6.2l1.6,5.3c0,0 0.9,6 1.2,10.1c0.4,4.1 1.4,8 3,11c1.6,3 9.7,24.1 10.9,29c1.2,5 3.7,11.5 3.7,11.5s3,4.6 7.3,5.3c4.2,0.7 12.2,-0.2 12.2,-0.2s4.8,-0.4 2.5,2.1c-2.3,2.5 -10.2,4.4 -13.2,6.5c-3,2.1 -4.1,5.1 -7.1,5.3c-3,0.2 -8.3,1.4 -8.3,-1.9c0,-3.4 2.1,-6.4 -2.8,-12c-4.9,-5.7 -16.9,-21.2 -19.4,-29.2c-2.5,-8 -3.9,-17.2 -4.6,-19.6c-0.7,-2.5 -1.8,-5.7 -5.3,-9.7c-3.5,-4.1 -5.3,-8.3 -5.3,-8.3s-1.4,-2.3 -2.3,-0.4c-0.9,1.9 -7.8,15.2 -7.8,15.2l-4.1,7.1c0,0 0.2,3.4 -1.8,5.8c-1.9,2.5 -4.2,3.9 -4.4,5.3c-0.2,1.4 -1.2,8.1 -3.4,14c-2.1,5.8 -7.2,14.5 -7.2,14.5s-3.2,4.8 -1.3,9l0,0zm114.4,0c-1.9,-4.2 1.2,-9 1.2,-9s5.1,-8.7 7.2,-14.5c2.1,-5.8 3.2,-12.6 3.4,-14c0.2,-1.4 2.5,-2.8 4.4,-5.3c1.9,-2.5 1.8,-5.8 1.8,-5.8l4.1,-7.1c0,0 6.9,-13.3 7.8,-15.2c0.9,-1.9 2.3,0.4 2.3,0.4s1.8,4.2 5.3,8.3c3.5,4.1 4.6,7.3 5.3,9.7c0.7,2.5 2.1,11.7 4.6,19.6c2.5,8 14.5,23.5 19.4,29.2c4.9,5.7 2.8,8.7 2.8,12c0,3.4 5.3,2.1 8.3,1.9c3,-0.2 4.1,-3.2 7.1,-5.3c3,-2.1 10.9,-4.1 13.2,-6.5c2.3,-2.5 -2.5,-2.1 -2.5,-2.1s-8,0.9 -12.2,0.2c-4.2,-0.7 -7.3,-5.3 -7.3,-5.3s-2.5,-6.5 -3.7,-11.5c-1.2,-5 -9.4,-26 -10.9,-29c-1.6,-3 -2.7,-6.9 -3,-11c-0.4,-4.1 -1.2,-10.1 -1.2,-10.1l-2,-6.4c-6.8,-3.2 -14.4,-5 -22.4,-5c-10.2,0 -19.7,2.9 -27.7,8l-2,21.7c0,0 -3.2,3.9 -7.2,12.2c-4.1,8.3 -4.9,25.5 -6,31.3c-1.1,5.8 -3.2,8.3 -5.1,11.3c-1.9,3 0.5,7.1 4.2,7.8c3.7,0.7 9.4,3 13.2,6c3.9,3 12.7,2.7 13.6,0.4c0.9,-2.3 -4.6,-3 -4.6,-3s-3.4,-2.3 -4.6,-3.5c-1.1,-1.4 -6.8,-10.4 -6.8,-10.4l0,0zm116.4,0c0,0 5.6,9 6.9,10.3c1.2,1.2 4.6,3.5 4.6,3.5s5.5,0.7 4.6,3c-0.9,2.3 -9.7,2.7 -13.6,-0.4c-3.9,-3 -9.5,-5.3 -13.3,-6c-3.7,-0.7 -6.2,-4.8 -4.2,-7.8c1.9,-3 4.1,-5.5 5.1,-11.3c1.1,-5.8 1.9,-23 6,-31.3c4.1,-8.3 7.2,-12.2 7.2,-12.2l2,-22.7c7.6,-4.4 16.5,-7 26,-7c8.8,0 17,2.2 24.3,6l1.7,5.5c0,0 0.9,6 1.2,10.1c0.4,4.1 1.4,8 3,11c1.6,3 9.7,24.1 10.9,29c1.2,5 3.7,11.5 3.7,11.5s3,4.6 7.2,5.3c4.2,0.7 12.2,-0.2 12.2,-0.2s4.8,-0.4 2.5,2.1c-2.3,2.5 -10.2,4.4 -13.2,6.5c-3,2.1 -4.1,5.1 -7.1,5.3c-3,0.2 -8.3,1.4 -8.3,-1.9c0,-3.4 2.1,-6.4 -2.8,-12c-4.9,-5.7 -17,-21.2 -19.4,-29.2c-2.5,-8 -3.9,-17.2 -4.6,-19.6c-0.7,-2.5 -1.8,-5.7 -5.3,-9.7c-3.5,-4.1 -5.3,-8.3 -5.3,-8.3s-1.4,-2.3 -2.3,-0.4c-0.9,1.9 -7.8,15.2 -7.8,15.2l-4.1,7.1c0,0 0.2,3.4 -1.8,5.8c-1.9,2.5 -4.2,3.9 -4.4,5.3c-0.2,1.4 -1.2,8.1 -3.4,14c-2.1,5.8 -7.2,14.5 -7.2,14.5s-2.9,4.8 -1,9l0,0zm115.7,0c-1.9,-4.2 1.2,-9 1.2,-9s5.1,-8.7 7.2,-14.5c2.1,-5.8 3.2,-12.6 3.4,-14c0.2,-1.4 2.5,-2.8 4.4,-5.3c1.9,-2.5 1.8,-5.8 1.8,-5.8l4.1,-7.1c0,0 6.9,-13.3 7.8,-15.2c0.9,-1.9 2.3,0.4 2.3,0.4s1.8,4.2 5.3,8.3c3.5,4.1 4.6,7.3 5.3,9.7c0.7,2.5 2.1,11.7 4.6,19.6c2.5,8 14.5,23.5 19.4,29.2c4.9,5.7 2.8,8.7 2.8,12c0,3.4 5.3,2.1 8.3,1.9c3,-0.2 4.1,-3.2 7.1,-5.3c3,-2.1 10.9,-4.1 13.2,-6.5c2.3,-2.5 -2.5,-2.1 -2.5,-2.1s-7.9,0.9 -12.2,0.2c-4.2,-0.7 -7.2,-5.3 -7.2,-5.3s-2.5,-6.5 -3.7,-11.5c-1.2,-5 -9.4,-26 -10.9,-29c-1.6,-3 -2.6,-6.9 -3,-11c-0.4,-4.1 -1.2,-10.1 -1.2,-10.1l-2.2,-7.1c-6.4,-2.8 -13.5,-4.4 -21,-4.4c-10.7,0 -20.7,3.3 -29,8.8l-1.9,20.9c0,0 -3.2,3.9 -7.2,12.2c-4.1,8.3 -5,25.5 -6,31.3c-1.1,5.8 -3.2,8.3 -5.1,11.3c-1.9,3 0.5,7.1 4.2,7.8c3.7,0.7 9.4,3 13.3,6c3.9,3 12.7,2.7 13.6,0.4c0.9,-2.3 -4.6,-3 -4.6,-3s-3.4,-2.3 -4.6,-3.5c-1.3,-1.3 -7,-10.3 -7,-10.3l0,0zm168.7,-69.9l-0.3,12.3c0,0 -2.6,1.6 -5.9,4.2c-3.3,2.6 -2,2.3 -4.5,3.9c-2.5,1.6 -5.7,4.5 -5.7,4.5s0.9,7.3 -0.9,15.4c-1.9,8.1 -2.8,13.2 -3.1,17.6c-0.3,4.4 1.2,8.9 1.2,8.9s4.7,4.5 6.7,5.4c2,0.9 4.5,3.3 8.4,4.2c3.9,0.9 8.4,5 4.2,6.5c-4.2,1.6 -9.2,2 -13.8,-0.2c-4.7,-2.2 -6.1,-2.6 -7.4,-1.2c-1.4,1.4 -3.9,3.6 -7.1,2.2c-3.3,-1.4 -3.1,-3.3 -2.5,-7.8c0.6,-4.5 2.5,-8.7 1.7,-12c-0.8,-3.3 -2.2,-8.6 -3.3,-13.8c-1.1,-5.3 -1.7,-12.6 -1.7,-12.6s-11.8,3.9 -13.5,14.2c0,0 -0.3,12.7 0.3,14c0.6,1.2 3.3,6.8 3.3,6.8s1.5,2.8 -1.2,2.3c-2.8,-0.5 -6.7,-1.7 -8.2,-3c-1.6,-1.2 -1.9,-4.2 -3.9,-8.2c-2,-4 -4.7,-9.3 -5.6,-10.9c-0.9,-1.6 -3.6,-5.9 -0.1,-7.5c3.4,-1.6 13.6,-7.5 16.3,-12c2.6,-4.5 9.8,-21.9 25.6,-27.5c0,0 2.8,-0.8 1.1,-2.2c-1.7,-1.4 -7.1,-7.6 -7.3,-9c-0.2,-1.4 0,-4.8 0,-4.8l0.7,-1.1c2.8,-0.5 5.6,-0.7 8.5,-0.7c6,0 11.7,1 17.1,2.9c0.7,0.4 1.1,0.7 1.2,0.9c0.4,1.6 -0.3,8.3 -0.3,8.3z" class="st20"/>
   <path id="svg_46" d="m84.633255,295.929513l0,-30.3l-11.3,0l0,-4l27.2,0l0,4l-11.4,0l0,30.3l-4.5,0l0,0zm20.7,0l0,-34.3l4.5,0l0,14.1l17.8,0l0,-14.1l4.6,0l0,34.3l-4.6,0l0,-16.2l-17.8,0l0,16.2l-4.5,0l0,0zm34.6,0l0,-34.3l24.8,0l0,4l-20.3,0l0,10.5l19,0l0,4l-19,0l0,11.7l21.1,0l0,4.1l-25.6,0l0,0zm51.2,0l-9.1,-34.3l4.7,0l5.2,22.5c0.6,2.4 1,4.7 1.4,7c0.9,-3.7 1.4,-5.8 1.6,-6.3l6.5,-23.2l5.5,0l4.9,17.4c1.2,4.3 2.1,8.4 2.7,12.2c0.4,-2.2 1,-4.7 1.7,-7.5l5.4,-22.1l4.6,0l-9.4,34.3l-4.4,0l-7.2,-26.2c-0.6,-2.2 -1,-3.5 -1.1,-4c-0.4,1.6 -0.7,2.9 -1,4l-7.3,26.2l-4.7,0l0,0zm33.7,0l4.8,0l3.8,-10.4l14.4,0l4,10.4l5.2,0l-14.1,-34.3l-4.9,0l-13.2,34.3l0,0zm9.9,-14.1l3.8,-10.1c0.8,-2.2 1.4,-4.4 1.9,-6.6c0.5,1.9 1.3,4.2 2.4,7.1l3.6,9.5l-11.7,0l0,0.1zm25.7,14.1l0,-34.3l4.6,0l0,30.3l16.9,0l0,4.1l-21.5,0l0,-0.1zm26.7,0l0,-34.3l4.6,0l0,17l17.1,-17l6.2,0l-14.4,13.9l15,20.4l-6,0l-12.2,-17.4l-5.6,5.5l0,11.9l-4.7,0l0,0zm33,0l0,-34.3l4.5,0l0,34.3l-4.5,0l0,0zm12.5,0l0,-34.3l4.7,0l18,27l0,-27l4.4,0l0,34.3l-4.7,0l-18,-27l0,27l-4.4,0l0,0zm50.7,-13.4l0,-4l14.6,0l0,12.7c-2.2,1.8 -4.5,3.1 -6.9,4c-2.4,0.9 -4.8,1.3 -7.3,1.3c-3.4,0 -6.4,-0.7 -9.2,-2.2c-2.8,-1.4 -4.8,-3.5 -6.2,-6.3c-1.4,-2.7 -2.1,-5.8 -2.1,-9.2c0,-3.3 0.7,-6.5 2.1,-9.4c1.4,-2.9 3.4,-5.1 6,-6.5c2.6,-1.4 5.6,-2.1 9.1,-2.1c2.5,0 4.7,0.4 6.7,1.2c2,0.8 3.6,1.9 4.7,3.4c1.1,1.4 2,3.3 2.6,5.6l-4.1,1.1c-0.5,-1.8 -1.2,-3.1 -1.9,-4.1c-0.8,-1 -1.9,-1.8 -3.3,-2.4c-1.4,-0.6 -3,-0.9 -4.7,-0.9c-2.1,0 -3.9,0.3 -5.4,1c-1.5,0.6 -2.7,1.5 -3.7,2.5c-0.9,1 -1.6,2.2 -2.2,3.4c-0.9,2.1 -1.3,4.4 -1.3,6.9c0,3.1 0.5,5.6 1.6,7.7c1.1,2.1 2.6,3.6 4.6,4.6c2,1 4.2,1.5 6.4,1.5c2,0 3.9,-0.4 5.8,-1.1c1.9,-0.8 3.3,-1.6 4.3,-2.4l0,-6.4l-10.2,0l0,0.1zm33.1,2.4l4.3,-0.4c0.2,1.7 0.7,3.1 1.4,4.2c0.7,1.1 1.9,2 3.5,2.7c1.6,0.7 3.3,1 5.3,1c1.7,0 3.3,-0.3 4.6,-0.8c1.3,-0.5 2.3,-1.2 3,-2.1c0.7,-0.9 1,-1.9 1,-2.9c0,-1.1 -0.3,-2 -0.9,-2.8c-0.6,-0.8 -1.7,-1.5 -3.1,-2c-0.9,-0.4 -3,-0.9 -6.1,-1.7c-3.2,-0.8 -5.4,-1.5 -6.6,-2.1c-1.6,-0.9 -2.9,-1.9 -3.7,-3.2c-0.8,-1.3 -1.2,-2.7 -1.2,-4.3c0,-1.7 0.5,-3.4 1.5,-4.9c1,-1.5 2.4,-2.7 4.3,-3.4c1.9,-0.8 4,-1.2 6.3,-1.2c2.6,0 4.8,0.4 6.7,1.2c1.9,0.8 3.4,2 4.5,3.6c1,1.6 1.6,3.4 1.7,5.4l-4.4,0.3c-0.2,-2.2 -1,-3.8 -2.4,-4.9c-1.4,-1.1 -3.3,-1.7 -6,-1.7c-2.8,0 -4.7,0.5 -6,1.5c-1.2,1 -1.9,2.2 -1.9,3.6c0,1.2 0.5,2.3 1.3,3c0.9,0.8 3.2,1.6 6.9,2.4c3.7,0.8 6.2,1.6 7.6,2.2c2,0.9 3.5,2.1 4.4,3.5c0.9,1.4 1.4,3 1.4,4.9c0,1.8 -0.5,3.6 -1.6,5.2c-1.1,1.6 -2.6,2.9 -4.5,3.8c-2,0.9 -4.2,1.3 -6.6,1.3c-3.1,0 -5.7,-0.5 -7.8,-1.4c-2.1,-0.9 -3.8,-2.3 -4.9,-4.1c-1.3,-1.5 -2,-3.6 -2,-5.9l0,0zm58,-1l4.6,1.2c-1,3.7 -2.7,6.6 -5.1,8.5c-2.5,2 -5.5,2.9 -9.1,2.9c-3.7,0 -6.7,-0.8 -9,-2.3c-2.3,-1.5 -4.1,-3.7 -5.3,-6.5c-1.2,-2.9 -1.8,-5.9 -1.8,-9.2c0,-3.6 0.7,-6.7 2,-9.4c1.4,-2.7 3.3,-4.7 5.8,-6.1c2.5,-1.4 5.3,-2.1 8.3,-2.1c3.4,0 6.3,0.9 8.7,2.6c2.3,1.8 4,4.2 4.9,7.4l-4.5,1.1c-0.8,-2.5 -1.9,-4.3 -3.5,-5.5c-1.5,-1.1 -3.4,-1.7 -5.7,-1.7c-2.6,0 -4.8,0.6 -6.6,1.9c-1.8,1.3 -3,3 -3.7,5.1c-0.7,2.1 -1.1,4.3 -1.1,6.6c0,2.9 0.4,5.5 1.3,7.7c0.9,2.2 2.2,3.8 4,4.9c1.8,1.1 3.7,1.6 5.8,1.6c2.5,0 4.7,-0.7 6.5,-2.2c1.7,-1.4 2.9,-3.6 3.5,-6.5l0,0zm10.3,12l0,-34.3l4.5,0l0,14.1l17.8,0l0,-14.1l4.6,0l0,34.3l-4.6,0l0,-16.2l-17.8,0l0,16.2l-4.5,0l0,0zm33.1,-16.7c0,-5.7 1.5,-10.2 4.6,-13.4c3.1,-3.2 7,-4.8 11.9,-4.8c3.2,0 6,0.8 8.6,2.3c2.5,1.5 4.5,3.6 5.8,6.3c1.3,2.7 2,5.8 2,9.2c0,3.5 -0.7,6.6 -2.1,9.3c-1.4,2.7 -3.4,4.8 -6,6.2c-2.6,1.4 -5.4,2.1 -8.3,2.1c-3.2,0 -6.1,-0.8 -8.7,-2.3c-2.6,-1.6 -4.5,-3.7 -5.8,-6.4c-1.3,-2.6 -2,-5.5 -2,-8.5l0,0zm4.7,0.1c0,4.1 1.1,7.4 3.3,9.8c2.2,2.4 5,3.6 8.4,3.6c3.4,0 6.2,-1.2 8.4,-3.6c2.2,-2.4 3.3,-5.8 3.3,-10.2c0,-2.8 -0.5,-5.2 -1.4,-7.3c-0.9,-2.1 -2.3,-3.7 -4.1,-4.9c-1.8,-1.1 -3.9,-1.7 -6.1,-1.7c-3.2,0 -6,1.1 -8.3,3.3c-2.3,2.1 -3.5,5.8 -3.5,11l0,0zm32.7,-0.1c0,-5.7 1.5,-10.2 4.6,-13.4c3.1,-3.2 7,-4.8 11.9,-4.8c3.2,0 6,0.8 8.6,2.3c2.5,1.5 4.5,3.6 5.8,6.3c1.3,2.7 2,5.8 2,9.2c0,3.5 -0.7,6.6 -2.1,9.3c-1.4,2.7 -3.4,4.8 -6,6.2c-2.6,1.4 -5.4,2.1 -8.3,2.1c-3.2,0 -6.1,-0.8 -8.7,-2.3c-2.5,-1.6 -4.5,-3.7 -5.8,-6.4c-1.4,-2.6 -2,-5.5 -2,-8.5l0,0zm4.6,0.1c0,4.1 1.1,7.4 3.3,9.8c2.2,2.4 5,3.6 8.4,3.6c3.4,0 6.2,-1.2 8.4,-3.6c2.2,-2.4 3.3,-5.8 3.3,-10.2c0,-2.8 -0.5,-5.2 -1.4,-7.3c-0.9,-2.1 -2.3,-3.7 -4.1,-4.9c-1.8,-1.1 -3.9,-1.7 -6.1,-1.7c-3.2,0 -6,1.1 -8.3,3.3c-2.3,2.1 -3.5,5.8 -3.5,11l0,0zm33.9,16.6l0,-34.3l4.5,0l0,30.3l16.9,0l0,4.1l-21.4,0l0,-0.1zm38.2,0l0,-34.3l12.9,0c2.6,0 4.7,0.4 6.3,1c1.6,0.7 2.8,1.8 3.7,3.2c0.9,1.4 1.4,3 1.4,4.5c0,1.5 -0.4,2.8 -1.2,4.1c-0.8,1.3 -2,2.3 -3.6,3.1c2.1,0.6 3.7,1.6 4.8,3.1c1.1,1.5 1.7,3.2 1.7,5.2c0,1.6 -0.3,3.1 -1,4.5c-0.7,1.4 -1.5,2.5 -2.5,3.2c-1,0.8 -2.3,1.3 -3.8,1.7c-1.5,0.4 -3.4,0.6 -5.6,0.6l-13.1,0l0,0.1zm4.5,-19.9l7.4,0c2,0 3.5,-0.1 4.3,-0.4c1.2,-0.3 2,-0.9 2.6,-1.7c0.6,-0.8 0.9,-1.8 0.9,-3c0,-1.1 -0.3,-2.1 -0.8,-3c-0.6,-0.9 -1.3,-1.5 -2.3,-1.8c-1,-0.3 -2.8,-0.5 -5.2,-0.5l-6.9,0l0,10.4l0,0zm0,15.9l8.5,0c1.5,0 2.5,-0.1 3.1,-0.2c1,-0.2 1.9,-0.5 2.6,-0.9c0.7,-0.4 1.3,-1.1 1.7,-1.9c0.4,-0.8 0.7,-1.8 0.7,-2.9c0,-1.3 -0.3,-2.4 -1,-3.3c-0.7,-0.9 -1.6,-1.6 -2.7,-2c-1.2,-0.4 -2.8,-0.6 -5,-0.6l-7.9,0l0,11.8l0,0zm50.2,-30.3l4.6,0l0,19.8c0,3.4 -0.4,6.2 -1.2,8.2c-0.8,2 -2.2,3.7 -4.2,4.9c-2,1.3 -4.7,1.9 -8,1.9c-3.2,0 -5.9,-0.6 -7.9,-1.7c-2,-1.1 -3.5,-2.7 -4.4,-4.8c-0.9,-2.1 -1.3,-5 -1.3,-8.6l0,-19.8l4.5,0l0,19.9c0,3 0.3,5.2 0.8,6.6c0.6,1.4 1.5,2.5 2.8,3.3c1.4,0.8 3,1.2 5,1.2c3.3,0 5.7,-0.8 7.1,-2.3c1.4,-1.5 2.1,-4.4 2.1,-8.7l0,-19.9l0.1,0zm10.6,23.3l4.3,-0.4c0.2,1.7 0.7,3.1 1.4,4.2c0.7,1.1 1.9,2 3.5,2.7c1.6,0.7 3.3,1 5.3,1c1.7,0 3.3,-0.3 4.6,-0.8c1.3,-0.5 2.3,-1.2 3,-2.1c0.7,-0.9 1,-1.9 1,-2.9c0,-1.1 -0.3,-2 -0.9,-2.8c-0.6,-0.8 -1.7,-1.5 -3.1,-2c-0.9,-0.4 -3,-0.9 -6.1,-1.7c-3.1,-0.8 -5.4,-1.5 -6.6,-2.1c-1.6,-0.9 -2.9,-1.9 -3.7,-3.2c-0.8,-1.3 -1.2,-2.7 -1.2,-4.3c0,-1.7 0.5,-3.4 1.5,-4.9c1,-1.5 2.4,-2.7 4.3,-3.4c1.9,-0.8 4,-1.2 6.3,-1.2c2.6,0 4.8,0.4 6.7,1.2c1.9,0.8 3.4,2 4.5,3.6c1,1.6 1.6,3.4 1.7,5.4l-4.4,0.3c-0.2,-2.2 -1,-3.8 -2.4,-4.9c-1.3,-1.1 -3.3,-1.7 -6,-1.7c-2.8,0 -4.7,0.5 -6,1.5c-1.3,1 -1.9,2.2 -1.9,3.6c0,1.2 0.4,2.3 1.3,3c0.9,0.8 3.2,1.6 6.9,2.4c3.7,0.8 6.2,1.6 7.6,2.2c2,0.9 3.5,2.1 4.4,3.5c1,1.4 1.4,3 1.4,4.9c0,1.8 -0.5,3.6 -1.6,5.2c-1,1.6 -2.6,2.9 -4.5,3.8c-2,0.9 -4.2,1.3 -6.6,1.3c-3.1,0 -5.7,-0.5 -7.8,-1.4c-2.1,-0.9 -3.8,-2.3 -5,-4.1c-1.2,-1.5 -1.8,-3.6 -1.9,-5.9z" class="st20"/>
  </g>
 </g>
</svg>