<?xml version="1.0" encoding="utf-8"?>
<!-- Generator: Adobe Illustrator 22.0.1, SVG Export Plug-In . SVG Version: 6.00 Build 0)  -->
<svg version="1.1" id="Layer_1" xmlns="http://www.w3.org/2000/svg" xmlns:xlink="http://www.w3.org/1999/xlink" x="0px" y="0px"
	 viewBox="0 0 1440 272.7" style="enable-background:new 0 0 1440 272.7;" xml:space="preserve">
<style type="text/css">
	.st0{fill:#D8D8D8;}
</style>
<g id="GmfGhI.tif">
	<g>
		<path class="st0" d="M251.3,189.3c0,1.9-0.1,3.8,0,5.6c0.1,1.2-0.3,1.9-1.5,2c-1.2,0.1-1.9-0.5-1.9-1.7c-0.1-2.1,0-4.1-0.1-6.2
			c0-0.5-0.2-0.9-0.3-1.4c-0.2,0.4-0.5,0.9-0.7,1.4c-0.7,2-1.2,4.1-2.1,6.1c-0.4,0.8-1.5,1.7-2.3,1.7c-0.8,0-1.9-0.9-2.3-1.7
			c-1-2.5-1.8-5.1-2.7-7.6c-0.1-0.3-0.4-0.5-0.6-0.7c0,0.3-0.1,0.5-0.1,0.8c0,2.3,0,4.6,0,7c0,1.2-0.1,2.4-1.8,2.4
			c-1.5-0.1-1.6-1.2-1.6-2.3c0.2-4,0.4-8,0.5-12c0.1-1.2,0.7-1.8,1.9-1.8c1.5,0,2.9-0.2,3.5,1.7c0.8,2.5,1.7,5.1,2.5,7.6
			c0.1,0.4,0.4,0.8,0.6,1.2c0.2-0.3,0.6-0.7,0.7-1c0.8-2.4,1.7-4.7,2.4-7.1c0.6-1.9,1.8-2.5,3.6-2.3c1.4,0.1,2.1,0.7,2.1,2.2
			c0,2.1,0,4.3,0,6.4C251.2,189.3,251.3,189.3,251.3,189.3z"/>
		<path class="st0" d="M204.9,188.9c0-2.1,0-4.1,0-6.2c0-1.1,0.4-1.9,1.7-1.9c1.3,0,1.6,0.9,1.6,2c0,0.3,0,0.5,0,0.8
			c0.1,3.6,0.1,3.6,3.6,3.6c3.2,0,3.2,0,3.3-3.3c0-1.2-0.3-2.7,1.4-3c1.3-0.2,2.4,0.2,2.4,1.7c0,4.2,0,8.4,0,12.6
			c0,1.2-0.7,1.8-1.9,1.8c-1.2,0-1.9-0.5-1.9-1.7c0-0.3,0-0.5,0-0.8c-0.2-1.2-0.1-3.2-0.7-3.4c-1.5-0.6-3.3-0.4-5-0.3
			c-0.4,0-1,1.1-1.1,1.8c-0.2,0.9,0.1,2-0.2,2.9c-0.2,0.6-1.1,1.5-1.5,1.4c-0.7-0.1-1.6-0.9-1.7-1.5
			C204.8,193.2,204.9,191,204.9,188.9C204.9,188.9,204.9,188.9,204.9,188.9z"/>
		<path class="st0" d="M185,188.7c0-3.9,1.7-6.9,4.8-7.9c3.5-1.2,6.9-0.9,9.7,1.9c0.5,0.5,0.9,1.8,0.7,2.2c-0.7,0.9-1.8,1.6-3,0.6
			c-0.1-0.1-0.2-0.3-0.4-0.4c-2.6-2-5.2-2-6.9,0.1c-1.9,2.2-1.7,5.8,0.3,7.8c1.4,1.4,3.7,1.6,5.4,0.5c0.5-0.4,0.9-1.1,1.4-1.2
			c0.9-0.1,1.9,0.2,2.9,0.3c-0.2,0.7-0.1,1.7-0.5,2.2c-2.3,2.7-6.1,3.6-9.3,2.3C186.7,195.6,185,192.8,185,188.7z"/>
		<path class="st0" d="M261.5,180.8c0.9,0,1.8-0.1,2.7,0c2.7,0.4,4.4,2.4,4.7,5.1c0.2,2.7-1.1,4.7-3.6,5.6c-0.6,0.2-1.2,0.5-1.8,0.5
			c-2.4-0.1-3.4,0.9-3.3,3.3c0,0.5-1.1,1.1-1.6,1.6c-0.5-0.6-1.5-1.2-1.5-1.8c-0.1-4.2-0.1-8.4-0.1-12.6c0-1.2,0.7-1.8,1.9-1.8
			C259.7,180.7,260.6,180.8,261.5,180.8C261.5,180.8,261.5,180.8,261.5,180.8z M260.3,185.2c0,3,0.3,3.5,1.9,3.5
			c1.6,0,2.9-1,2.9-2.4c0-1.4-1.7-2.9-3.4-2.6C261,183.9,260.5,185,260.3,185.2z"/>
		<path class="st0" d="M254,157.5c-0.6,0.7-1,1.8-1.7,2.1c-0.7,0.3-2,0-2.6-0.6c-0.9-0.9-1.5-2.2-2.2-3.3c-2.4-4.5-4.7-9-7.1-13.5
			c-0.3-0.6-0.8-1.3-0.8-1.9c0-0.7,0.4-1.6,0.9-1.9c0.4-0.3,1.4,0,1.9,0.3c0.6,0.5,1,1.2,1.4,1.9c3,4.8,5.9,9.6,8.9,14.4
			C253.1,155.6,253.4,156.5,254,157.5z"/>
		<path class="st0" d="M241.5,111.4c-1.6-0.1-2.4-1.3-1.9-2.5c0.6-1.5,1.5-2.9,2.2-4.3c2.3-4.3,4.6-8.6,6.9-13
			c0.8-1.5,1.8-2.5,3.6-1.8c1.4,0.6,1.8,2.3,0.7,4.2c-2.5,4.2-5.2,8.3-7.8,12.5c-0.8,1.2-1.5,2.5-2.3,3.6
			C242.6,110.7,241.9,111.1,241.5,111.4z"/>
		<path class="st0" d="M219.3,116.1c0,1.3-1.3,2.1-2.7,1.4c-2-0.9-4-1.9-6-3c-3.6-1.9-7.2-3.9-10.9-5.8c-0.5-0.3-1.2-0.5-1.3-0.9
			c-0.4-1-0.9-2.2-0.6-3.1c0.4-1.3,1.7-1.5,2.9-1c1.3,0.6,2.5,1.3,3.7,2.1c4.5,2.8,8.9,5.6,13.4,8.4c0.7,0.4,1.4,0.8,2.1,1.1
			C219.7,115.6,219.5,115.9,219.3,116.1z"/>
		<path class="st0" d="M199.7,146.2c-0.7-0.6-1.9-1-2-1.7c-0.2-0.8,0.2-2.1,0.8-2.8c0.7-0.8,1.9-1.2,3-1.8c4.6-2.5,9.3-4.9,13.9-7.4
			c0.4-0.2,0.8-0.5,1.2-0.5c0.8,0.1,1.6,0.4,2.4,0.6c-0.2,0.8-0.3,1.7-0.8,2.3c-0.5,0.7-1.4,1.1-2.2,1.5c-4.5,2.8-9.1,5.6-13.7,8.4
			C201.6,145.4,200.8,145.7,199.7,146.2z"/>
		<path class="st0" d="M211.1,157.8c0.4-1.1,0.6-1.8,1.1-2.5c3.1-5,6.2-10,9.3-15c0.7-1.1,1.4-2.8,3-2c1.7,0.9,0.9,2.5,0.2,3.7
			c-2.9,5.4-5.8,10.9-8.7,16.3c-0.7,1.3-1.7,2-3.1,1.4C212.2,159.4,211.7,158.4,211.1,157.8z"/>
		<path class="st0" d="M211.1,91.7c0.6-0.7,1.1-1.7,1.9-1.9c0.7-0.2,2.1,0.3,2.5,0.9c1.7,2.5,3.1,5.2,4.5,7.9
			c1.5,2.7,3.1,5.5,4.4,8.3c0.6,1.3,2.1,3.2,0.1,4.2c-1.8,1-2.5-1.2-3.3-2.3c-0.9-1.2-1.6-2.6-2.4-3.8c-2.1-3.4-4.2-6.8-6.3-10.3
			C211.9,93.9,211.6,93,211.1,91.7z"/>
		<path class="st0" d="M198.9,127.1c-1.4,0-2.9,0.1-4.3,0c-1.5-0.1-2.5-1-2.3-2.4c0.2-0.9,1.2-1.9,2.1-2.3c1-0.4,2.3-0.2,3.4-0.2
			c4.4,0.1,8.9,0.3,13.3,0.5c1.4,0.1,2.8,0.3,4.2,0.6c0.5,0.1,1.2,1,1.2,1.5c0,0.5-0.7,1.1-1.2,1.5c-0.4,0.3-1,0.2-1.6,0.3
			c-5,0-9.9,0-14.9,0C198.9,126.8,198.9,127,198.9,127.1z"/>
		<path class="st0" d="M234.9,88.8c-0.3,6.1-0.6,12.1-0.9,18.2c-0.1,1.1-0.2,2.5-1.6,2.1c-0.8-0.2-1.6-1.7-1.6-2.6
			c-0.3-6-0.5-11.9-0.6-17.9c-0.1-2.9,0.7-4,2.5-3.9C234.3,84.8,235.1,86.2,234.9,88.8z"/>
		<path class="st0" d="M230.7,157.8c0-4.9,0-9.8,0-14.7c0-1.2,0.1-2.5,1.7-2.5c1.5,0,1.6,1.2,1.6,2.3c0.2,2.5,0.4,5,0.5,7.5
			c0.2,3.2,0.3,6.4,0.5,9.6c0,0.9,0.1,1.8-0.1,2.7c-0.2,1.5-1.3,2.1-2.7,2c-1.4-0.1-2-1-2.1-2.3c0-1.5,0-3,0-4.6
			C230.3,157.8,230.5,157.8,230.7,157.8z"/>
		<path class="st0" d="M257.1,146.7c-0.5,0.7-0.8,1.7-1.3,1.9c-0.7,0.3-1.8,0.4-2.5,0c-1-0.5-1.8-1.5-2.6-2.3
			c-2.3-2.5-4.5-5-6.8-7.5c-0.9-1-1.3-2-0.3-3.1c1-1,2-0.4,2.8,0.3c3.1,2.9,6.3,5.8,9.4,8.8C256.3,145.4,256.6,146,257.1,146.7z"/>
		<path class="st0" d="M221.9,112.2c0,1.7-1.7,2.6-2.9,1.6c-3.5-3-6.9-6.2-10.2-9.4c-1-1-1-2.3,0-3.4c1-1,2.2-0.9,3.1,0
			c3.2,3.3,6.4,6.7,9.5,10.1C221.8,111.5,221.8,112,221.9,112.2z"/>
		<path class="st0" d="M222.1,137.1c-0.4,0.6-0.6,1.1-0.9,1.5c-2.9,3.3-5.8,6.5-8.8,9.7c-1,1.1-2.4,1.3-3.6,0.1
			c-1.2-1.1-1.1-2.5,0.1-3.6c3.3-3,6.6-6,10-8.9c0.5-0.4,1.5-0.5,2.2-0.3C221.5,135.8,221.8,136.6,222.1,137.1z"/>
		<path class="st0" d="M229.8,107.8c-0.4,0.5-0.9,1.6-1.4,1.7c-0.6,0.1-1.8-0.6-2-1.2c-1.5-4.4-2.9-8.8-4.1-13.2
			c-0.4-1.2,0.2-2.4,1.5-2.7c1.4-0.4,2.6,0.2,3,1.6C227.8,98.5,228.7,103,229.8,107.8z"/>
		<path class="st0" d="M245,114.2c-1.6,0-2.4-1.3-1.7-2.5c0.6-1.1,1.5-2,2.3-2.9c2.2-2.5,4.4-4.9,6.6-7.3c1.1-1.2,2.4-1.5,3.8-0.4
			c1.1,0.9,1.1,2.6-0.2,3.8c-3,2.9-6.2,5.6-9.3,8.4C246.1,113.7,245.4,113.9,245,114.2z"/>
		<path class="st0" d="M229.8,141.8c-1.1,4.9-2,9.3-3,13.7c-0.3,1.3-1.4,1.9-2.7,1.6c-1.3-0.3-1.9-1.2-1.9-2.5c0-0.1,0-0.2,0-0.3
			c1.4-4.3,2.7-8.7,4.2-13c0.2-0.6,1.4-1.2,2-1.2C228.9,140.3,229.4,141.3,229.8,141.8z"/>
		<path class="st0" d="M202.3,135.5c-0.7-0.7-1.8-1.4-2.1-2.3c-0.5-1.4,0.3-2.5,1.8-2.8c4.3-1,8.5-1.9,12.8-2.7
			c0.7-0.1,1.5,0.5,2.3,0.9c-0.3,0.8-0.4,2-0.9,2.2C211.7,132.4,207.2,133.9,202.3,135.5z"/>
		<path class="st0" d="M215.4,122.1c-4.7-1.1-9.2-2-13.6-3.1c-1.4-0.4-2-1.6-1.6-3c0.4-1.5,1.6-2,2.9-1.5c4.2,1.3,8.4,2.6,12.5,4.1
			c0.7,0.2,1.3,1.3,1.4,2.1C217.2,121,216,121.6,215.4,122.1z"/>
		<path class="st0" d="M235.2,107.5c1.1-4.7,2-9.1,3-13.4c0.3-1.3,1.3-2.1,2.6-1.7c1.4,0.4,2.4,1.4,1.9,3c-1.3,4.3-2.6,8.5-4.1,12.7
			c-0.2,0.7-1.4,1-2.1,1.5C236.1,108.9,235.6,108.1,235.2,107.5z"/>
		<path class="st0" d="M243.1,155.1c-0.6,0.6-1.1,1.7-1.8,1.9c-0.9,0.1-1.9-0.5-2.7-1c-0.3-0.2-0.4-1-0.5-1.5
			c-0.8-3.8-1.7-7.7-2.4-11.5c-0.2-0.9,0.2-2.4,0.8-2.7c1.4-0.7,2.1,0.6,2.5,1.7C240.3,146.2,241.6,150.5,243.1,155.1z"/>
		<path class="st0" d="M228.1,189c0,2,0,3.9,0,5.9c0,1.1-0.3,2-1.6,2c-1.5,0-1.7-1-1.7-2.1c0-3.9,0-7.8,0-11.8
			c0-1.2,0.2-2.2,1.7-2.2c1.5,0,1.6,1.2,1.6,2.3C228.1,185,228.1,187,228.1,189z"/>
	</g>
</g>
<g id="GZSue8.tif">
	<g>
		<path class="st0" d="M326.4,199.7c0-36.8,0-73.6,0-110.5c36.8,0,73.6,0,110.5,0c0,36.8,0,73.6,0,110.5
			C400,199.7,363.2,199.7,326.4,199.7z M433.3,92.8c-3.1-0.3-102.1-0.2-103.5,0.1c0,34,0,68.1,0,102.1c0,0.3,0,0.6,0,0.9
			c0,0,0.1,0.1,0.1,0.1c0,0,0.1,0.1,0.1,0.1c34.4,0,68.8,0,103.2,0C433.3,161.7,433.3,127.3,433.3,92.8z"/>
		<path class="st0" d="M403.9,124.9c-7.3,0-14.4,0-21.5,0c0-1,0-1.8,0-2.7c8.1,0,16.1,0,24.3,0c0,8,0,16.1,0,24.3
			c-0.5,0-0.9,0.1-1.3,0.1c-0.4,0-0.8,0-1.4,0c0-2.5,0-4.9,0-7.3c0-2.4,0-4.7,0-7.1C403.9,129.8,403.9,127.4,403.9,124.9z"/>
		<path class="st0" d="M362.2,166.7c7.3,0,14.4,0,21.5,0c0,1,0,1.7,0,2.5c-1.3,0.4-22.6,0.4-24.3,0c0-8,0-15.9,0-24c1,0,1.8,0,2.8,0
			C362.2,152.3,362.2,159.3,362.2,166.7z"/>
		<path class="st0" d="M378.3,150.5c0.5-2,1-4,1.5-6c0.5-1.9,1-3.9,1.5-5.9c0.6,0,1.2,0,1.9,0c0.5,2,1,4,1.4,6
			c0.5,1.9,0.9,3.9,1.5,5.9c1-3.9,2-7.9,3-11.9c0.6,0,1.1,0,1.9,0c-1.4,4.9-2.7,9.8-4.1,14.7c-0.6,0-1.2,0.1-1.9,0.1
			c-1.1-4.1-2-8.1-2.9-12.3c-1.1,4.1-2.1,8.1-3.2,12.2c-0.6,0-1.2,0.1-1.9,0.1c-1.2-4.9-2.5-9.8-3.7-14.8c0.7,0,1.2,0,1.9,0
			c0.9,3.9,1.8,7.9,2.7,11.8C378.1,150.5,378.2,150.5,378.3,150.5z"/>
		<path class="st0" d="M420.6,145.7c0.4,0.3,0.8,0.5,1.2,0.8c2.2,1.6,2.1,4.7-0.3,6c-0.7,0.4-1.6,0.6-2.4,0.8
			c-1.4,0.3-3.1,0.2-4.6-0.1c-0.3-1.2-0.4-11.7-0.1-14.1c1.9-0.6,3.9-0.6,5.9-0.1c1.5,0.4,2.4,1.3,2.7,2.8c0.2,1.4-0.4,2.6-1.6,3.4
			C421.1,145.3,420.9,145.5,420.6,145.7z M416.2,151.9c1.3,0.1,2.5,0.2,3.6-0.3c1.1-0.4,1.6-1.2,1.6-2.4c0-1.2-0.6-2-1.8-2.4
			c-1.1-0.4-2.2-0.3-3.4-0.3C416.2,148.4,416.2,150.1,416.2,151.9z M416.2,145.1c1.4,0.1,2.6,0.2,3.7-0.4c0.9-0.5,1.3-1.2,1.3-2.3
			c0-1-0.6-1.7-1.7-2.1c-1.1-0.3-2.1-0.3-3.2-0.1C416.2,141.8,416.2,143.4,416.2,145.1z"/>
		<path class="st0" d="M343.3,147.6c0,2,0,3.8,0,5.7c-0.4,0.1-0.6,0.1-0.9,0.1c-0.3,0-0.5,0-0.9-0.1c0-4.8,0-9.6,0-14.4
			c2-0.5,3.9-0.6,5.8-0.1c1.5,0.4,2.6,1.3,2.8,2.9c0.3,1.8,0.1,3.5-1.6,4.6c-1.1,0.8-2.3,1.1-3.6,1.1
			C344.6,147.6,344.1,147.6,343.3,147.6z M343.4,146c1.9,0.3,3.5,0.2,4.7-1.3c0.7-0.9,0.6-2.6-0.1-3.4c-1.3-1.5-2.9-1.3-4.6-1
			C343.4,142.1,343.4,144,343.4,146z"/>
	</g>
</g>
<g>
	<path class="st0" d="M485.4,121.9c13.5,0,27,0,40.6,0c0,3.8,0,7.3,0,11.1c-4.2,0-8.3,0-13.1,0c0,11,0,21.7,0,32.6
		c-4.8,0-9.1,0-13.9,0c0-10.7,0-21.4,0-32.2c-4.9,0-9.3,0-13.7,0C485.4,129.5,485.4,125.7,485.4,121.9z"/>
	<path class="st0" d="M569.9,165.5c0-14.5,0-28.8,0-43.3c0.8-0.1,1.4-0.3,2.1-0.3c6.9,0,13.9-0.3,20.8,0.1
		c7.6,0.4,14.3,3.1,17.5,10.8c3.2,8,2.8,16.1-1.3,23.8c-2.9,5.5-8.1,8.3-14,8.7C586.8,165.9,578.5,165.5,569.9,165.5z M584,131.9
		c0,8.3,0,16.1,0,23.8c7.5,1.6,12.5-1.3,13.7-8.3c0.6-3.3,0.1-6.9-0.5-10.2c-0.6-3.2-3.3-4.9-6.5-5.2
		C588.5,131.7,586.3,131.9,584,131.9z"/>
	<path class="st0" d="M543.6,131.7c0,2.4,0,4.3,0,6.6c6.1,0,12.1,0,18.3,0c0,3.5,0,6.5,0,10c-6.1,0-12,0-18.2,0c0,2.6,0,4.8,0,7.4
		c7.3,1,14.8-0.1,22.4,0.7c0,3.1,0,6,0,9.2c-12.1,0-24.2,0-36.6,0c0-14.3,0-28.7,0-43.4c11.6,0,23.4,0,35.4,0c0,2.9,0,6.1,0,9.5
		C558,131.7,551,131.7,543.6,131.7z"/>
	<path class="st0" d="M616.5,122.8c3.1,0,5.4,0,8,0c1.5,2.5,3,5.1,4.8,8c1.3-2.2,2.5-3.9,3.4-5.8c0.8-1.7,1.9-2.6,3.9-2.3
		c1.5,0.2,3.1,0,5.2,0c-3,4.6-5.8,8.8-8.7,13.2c2.9,4.4,5.8,8.7,9.1,13.7c-2.8,0-5.1,0.1-7.4-0.1c-0.6-0.1-1.3-0.9-1.7-1.6
		c-1.3-2-2.4-4.1-4-6.8c-1.2,2-2.2,3.5-3,5.2c-1.1,2.4-2.7,3.8-5.5,3.3c-1.2-0.2-2.5,0-4.4,0c3.1-4.7,6-9.1,9-13.6
		C622.3,131.7,619.6,127.5,616.5,122.8z"/>
</g>
<g id="_x36_KNoVA.tif">
	<g>
		<path class="st0" d="M835,147.7c0,3.1,0,6.1,0,9.2c0,6.7-3.4,10.7-10.1,11.6c-3.4,0.5-6.7,0.4-9.9-0.9c-1-0.4-1.9-0.9-2.7-1.5
			c-0.5-0.3-0.8-0.3-1.3,0c-4.8,3-10,3.4-15.3,1.6c-4.6-1.5-7.4-5.4-7.4-10.2c0-6.7,0-13.5,0-20.2c0-1.5,0.5-2,2-2
			c1.7,0,3.5,0,5.2,0c1.7,0,2.2,0.5,2.2,2.2c0,6.2,0,12.4,0,18.5c0,3.1,1.5,4.6,4.6,4.5c0.7,0,1.4-0.1,2-0.3
			c1.9-0.5,2.6-1.5,2.6-3.4c0-6.4,0-12.9,0-19.3c0-1.8,0.4-2.3,2.2-2.3c1.7,0,3.3,0,5,0c1.6,0,2.2,0.5,2.2,2.1c0,2.6,0,5.2,0,7.8
			c0,3.9,0,7.9,0,11.8c0,1.6,0.6,2.5,2.1,3c1.1,0.3,2.2,0.5,3.3,0.4c2.5-0.3,3.8-1.8,3.8-4.3c0-6,0-12,0-18.1c0-0.4,0-0.9,0.1-1.3
			c0.1-0.9,0.7-1.4,1.6-1.4c2,0,4.1,0,6.1,0c1.1,0,1.6,0.6,1.6,1.8C835,140.6,835,144.1,835,147.7z"/>
		<path class="st0" d="M679.7,161.3c0-0.8,0-1.6,0-2.4c0-1.4,0.7-1.9,2.1-1.6c0.9,0.2,1.9,0.6,2.8,0.8c3.8,1.2,7.6,2.1,11.6,1.8
			c1.3-0.1,2.6-0.4,3.9-0.8c2.6-1,3.3-4.1,1.3-6.1c-0.9-0.9-2.1-1.7-3.3-2.2c-2.6-1.1-5.4-2-8.1-3c-2.3-0.9-4.4-2.2-6.3-3.9
			c-4.5-4.2-4.7-14.5,2.4-18.4c3.2-1.8,6.8-2.4,10.4-2.4c3.4,0,6.8,0.3,10.1,1.3c0.5,0.2,1.1,0.3,1.6,0.6c0.8,0.4,1.2,1,1.2,1.9
			c0,1.4,0,2.9,0,4.4c0,1.5-0.6,2-2.1,1.7c-2.1-0.4-4.2-1-6.3-1.2c-2.2-0.2-4.4-0.1-6.6-0.1c-0.3,0-0.7,0.1-1,0.3
			c-1.3,0.5-2.4,1.2-2.6,2.7c-0.2,1.6,0.4,2.9,1.7,3.6c2,1,4.1,1.8,6.2,2.7c2.7,1.1,5.5,2,8,3.4c3.8,2,5.6,5.4,5.9,9.7
			c0.2,3.6-0.4,6.9-2.9,9.7c-2.1,2.3-4.7,3.5-7.7,4.2c-7,1.5-13.8,0.8-20.4-1.7c-1.5-0.6-1.9-1.2-1.9-2.9
			C679.7,162.6,679.7,161.9,679.7,161.3z"/>
		<path class="st0" d="M727,136.8c2.4-1.4,4.7-2.2,7.2-2.4c3.5-0.4,6.9,0,9.9,2.1c2.9,2,4.2,4.9,4.5,8.3c0.2,2.4,0.2,4.8,0.2,7.2
			c0,4.6,0,9.3,0,13.9c0,1.8-0.5,2.3-2.3,2.3c-1.8,0-3.6,0-5.4,0c-1.9,0-2.3-0.4-2.3-2.3c0-6.1,0-12.2,0-18.3c0-0.4,0-0.9-0.1-1.3
			c-0.3-2.3-1.3-3.4-3.7-3.8c-1.8-0.3-3.6-0.2-5.4,0.6c-1.7,0.7-2.6,1.9-2.6,3.9c0,6.4,0,12.7,0,19.1c0,1.8-0.4,2.2-2.2,2.2
			c-1.8,0-3.7,0-5.5,0c-1.8,0-2.3-0.5-2.3-2.3c0-8.3,0-16.6,0-24.9c0-5.3,0-10.5,0-15.8c0-2,0.5-2.4,2.4-2.4c1.8,0,3.5,0,5.3,0
			c1.9,0,2.3,0.4,2.3,2.3c0,3.5,0,6.9,0,10.4C727,135.9,727,136.2,727,136.8z"/>
		<path class="st0" d="M773.6,148c0.6-3.3-1.4-5.6-5-5.9c-3.2-0.3-6.4,0.3-9.5,1c-0.3,0.1-0.6,0.1-0.9,0.2c-1.1,0.1-1.7-0.4-1.7-1.5
			c-0.1-1.3,0-2.5,0-3.8c0-1.3,0.7-2.1,1.9-2.3c2.5-0.5,5-1.1,7.5-1.2c2.6-0.1,5.2,0,7.7,0.5c6.3,1.2,9.5,5.1,9.6,11.5
			c0.1,6.2,0.1,12.4,0.1,18.6c0,1.2-0.4,1.7-1.5,2.1c-4,1.1-8.1,2-12.3,2c-3.1,0.1-6.1,0.1-9.1-0.9c-7-2.3-9.8-10.1-5.6-16
			c1.5-2.2,3.8-3.4,6.3-4.1c3.8-1.1,7.6-1,11.4-0.3C772.8,147.8,773.2,147.9,773.6,148z M773.7,157.7
			C773.7,157.7,773.7,157.7,773.7,157.7c0-0.8,0-1.7,0-2.5c0-0.3-0.3-0.7-0.5-0.8c-3-0.8-6-1.1-8.9,0.3c-1.3,0.6-1.9,1.8-1.9,3.2
			c0,1.5,0.7,2.5,2.1,3.1c0.6,0.3,1.3,0.5,2,0.6c2.1,0.4,4.2-0.1,6.3-0.4c0.8-0.1,1.1-0.5,1-1.3
			C773.7,159.1,773.7,158.4,773.7,157.7z"/>
		<path class="st0" d="M842,174.9c0-0.9,0.1-1.9,0-2.8c-0.1-1.2,0.4-2,1.4-2.7c2.3-1.5,4.4-3.4,6.1-5.6c4.1-5.3,5.7-11.3,5.1-17.9
			c-0.7-8.1-4.6-14.2-11.3-18.7c-0.9-0.6-1.3-1.3-1.3-2.4c0.1-2,0-4,0-6.1c0-1.9,1-2.6,2.7-1.7c2,1.1,4,2.3,5.8,3.7
			c8.1,6.4,12.6,14.8,13.4,25.1c1.1,13.8-6.4,27.2-18.7,33.6c-0.3,0.2-0.7,0.3-1,0.4c-1.4,0.4-2.2-0.2-2.2-1.7c0,0,0-0.1,0-0.1
			C842,177,842,176,842,174.9z"/>
	</g>
</g>
<g id="_x35_WvHLl.tif">
	<g>
		<path class="st0" d="M1001.9,149.7c0,2.9-0.2,5.7,0.1,8.5c0.1,1.5,0.4,3.4,2.5,3.7c1.6,0.3,3.3-1.1,4.3-3.1
			c3.1-6,5.4-12.4,8.2-18.5c0.8-1.8,1.4-4.2,3.9-4.2c2.3,0,3.6,1.8,4.5,3.7c3,6.2,6.1,12.5,5.4,19.7c-0.2,2,0.7,2.4,2.2,2.4
			c2.4,0,4.2-1.3,5.4-3.1c2.7-4.2,5.1-8.6,5.6-13.8c0.2-2.3,0.5-4.6,1.1-6.8c0.5-1.9-0.4-2.5-1.9-2.8c-1.1-0.2-2.2-0.3-3.1-0.7
			c-1-0.4-1.8-1.3-1.5-2.6c0.3-1.3,1.2-1.7,2.4-1.7c0.5,0,1.1,0.1,1.6,0.2c3.8,0.6,3.8,0.6,4.8-3.3c0.7-2.6,1.5-5.2,2.2-7.8
			c0.2-0.8,0.4-1.6,0.8-2.3c0.6-1,1.5-1.6,2.7-1.2c1,0.4,1.5,1.2,1.4,2.3c-0.1,0.9-0.3,1.9-0.5,2.8c-0.6,2.4-1.3,4.7-1.9,7.1
			c-0.7,3.1-0.5,3.2,2.7,2.8c0.5-0.1,1.1-0.3,1.6-0.4c1.4-0.1,2.4,0.7,2.7,2c0.3,1.3-0.7,2.1-1.8,2.4c-1.7,0.5-3.4,0.8-5.2,1.1
			c-1.2,0.2-2.2,0.6-2.3,1.9c-0.8,6.6-2.7,13.1-1.1,19.8c0.1,0.4,0.1,0.8,0.2,1.2c0.5,1.6,1.1,3.3,2.9,3.7c1.8,0.4,2.8-1.2,3.8-2.5
			c2.5-3.1,3.1-6.9,3.7-10.6c0.8-4.5,2.8-8.2,6.4-11.1c4.2-3.3,10.2-1.9,11.4,2.8c0.7,2.6,0.7,5.4-0.6,8c-2.3,4.7-5.3,8.2-11,8.3
			c-1.8,0-2,0.8-1.2,2.4c1.2,2.2,3.3,3.2,5.7,2.8c3.3-0.6,5.8-2.1,7.3-5.2c2.2-4.5,4-9.2,5-14.2c0.1-0.7,0.3-1.3,0.5-2
			c0.7-2.9,1.6-3.9,3.1-3.4c2.1,0.7,1.7,2.3,1.5,4c-0.6,5.1-2,10.1-1.8,15.3c0.1,1.5-0.7,3.8,1.2,4.3c1.4,0.4,2.2-1.7,3.1-2.9
			c3.1-4.4,3.9-9.4,4.6-14.6c0.1-0.7,0-1.4,0.2-2c0.6-2.2,2-2.9,3.8-1.5c1.4,1.1,2.1,0.6,3-0.4c0.5-0.5,0.9-1,1.5-1.4
			c3.5-2.8,6.7-1.8,8.2,2.5c0.5,1.6,0.6,3.2,0.6,4.8c0,4.1,0,8.2,0,12.2c0,1.6,0.2,3.4,2.3,3.8c1.9,0.4,3.2-0.6,4-2.2
			c1.7-3.1,3.4-6.2,4.5-9.6c0.5-1.7,1.3-3.3,2.1-4.9c0.5-1.1,1.6-1.5,2.8-1.1c1.2,0.4,1.8,1.5,1.4,2.6c-2.2,6.3-4,12.8-8.8,17.8
			c-4.1,4.3-10.5,2.6-12.4-2.9c-0.6-1.8-0.9-3.7-0.8-5.6c0-4.1,0-8.2,0-12.2c0-0.5,0.1-1.2-0.5-1.4c-0.6-0.3-1,0.3-1.4,0.7
			c-3.9,4.8-6.6,10.3-7.8,16.4c-0.3,1.3-0.5,2.7-0.8,4c-0.7,2.2-1.5,2.7-3.5,1.8c-1.2-0.5-1.9-0.3-3,0.2c-3.5,1.8-5.8,1-7.7-2.4
			c-1.1-2-1.1-1.9-2.8-0.2c-3.7,3.6-8.2,4.7-13.1,3.8c-2.1-0.4-3.6-1.9-4.9-3.4c-0.8-0.9-1.5-1.1-2.3,0c-0.5,0.8-1.2,1.5-2,2
			c-3.8,2.7-8,2.2-10.7-1.6c-0.6-0.9-1-1.9-1.5-2.9c-0.5-1.1-1.1-1-1.8-0.2c-0.8,0.9-1.6,1.9-2.4,2.7c-3.1,3-6.5,4.3-10.8,2.7
			c-1.2-0.5-2.5-1.1-3.9-0.4c-4.2,2.1-8.2,1.3-12-1.1c-1.7-1.1-2.9-1.2-4.3,0.3c-0.2,0.2-0.4,0.4-0.6,0.5c-5,3.2-10.4,1-11.4-4.9
			c-0.5-2.9-1.1-5.8-0.4-8.9c0.5-2.5,0.1-5.1,0.1-7.7c0-0.7-0.3-1.5-0.9-1.7c-0.7-0.2-1.2,0.5-1.6,1c-3.1,4.7-6,9.4-7,15
			c-0.3,1.7-0.6,3.5-1,5.2c-0.3,1.2-1.4,2.7-2.5,2c-2.1-1.3-3.5-0.1-5.2,0.5c-0.9,0.4-1.9,0.8-2.8,0.2c-2.4-1.6-4.1,0-5.8,1.2
			c-1.8,1.2-3.9,2.1-3.9,4.8c0,0.8-0.3,1.7-1.4,1.6c-0.9-0.1-1.5-0.7-1.6-1.6c-0.3-2.5-0.6-5,2.7-6.5c1-0.5,1.8-1.2,2.7-1.7
			c1.9-1.2,2.7-2.8,2.5-5.1c-0.5-6.2,0.9-12.2,1.7-18.2c0.1-0.5,0.2-1.1,0.4-1.6c0.4-1.1,1.2-1.8,2.5-1.6c1.3,0.2,1.9,1.1,1.9,2.3
			c0.2,2.6-0.6,5.1-1.1,7.6c-0.5,2.7-0.2,5.4-0.9,8.1c-0.1,0.4,0,0.9,0.4,0.9c0.3,0,0.7-0.3,0.9-0.6c4.4-5.6,7.2-12,7.9-19
			c0.5-5.2,0.8-10.6-0.9-15.8c-0.3-1-0.7-2.1-1.2-3c-0.1-0.3-0.6-0.5-1-0.6c-0.5-0.1-0.6,0.4-0.7,0.8c0,0.1,0,0.3-0.1,0.4
			c-0.3,1.2,0.5,3.3-1.6,3c-1.8-0.3-1-2.2-1.1-3.5c-0.1-1.8-0.2-3.6,0-5.3c0.4-3.3-1.1-5.6-3.3-7.9c-4.6-4.8-9.5-8.9-15.9-11
			c-15-4.8-28.7-2.7-40.5,8.1c-6.5,5.9-10.8,13.1-12.4,21.9c-3,16.9,4.2,33.1,18.4,41.7c2.9,1.7,3.9,3.9,3,6.7
			c-0.3,0.8-0.8,1.5-1.7,1.5c-0.8,0-1.2-0.6-1.3-1.3c0-2.4-1.6-3.5-3.3-4.7c-10.7-7.7-17.2-17.7-18.9-31
			c-1.7-13.6,2.4-25.4,11.3-35.2c6.8-7.5,15.6-11.9,25.9-13.3c7.4-1,14.3-0.1,21.1,2.4c10.5,3.9,18.2,11.1,23.3,21
			c0.2,0.5,0.3,1.2,1,1.1c0.6-0.1,0.5-0.8,0.5-1.3c0.1-0.9,0.4-1.7,1.4-1.6c1,0.1,1.2,1,1.2,1.8c0,1,0,1.9,0,2.9
			c0.2,4.7-0.4,9.5,0.6,14.2c0.5,2.3,0.4,4.9-0.3,7.3c-0.2,0.8-0.4,1.6-0.2,2.4c0.2,1,0.4,2.5,1.2,2.9c0.9,0.5,1.2-1.1,1.9-1.7
			c0.6-0.5,1.2-1.1,1.9-1.5c3.9-2.5,7.6-0.7,8,4c0.2,2.4,0,4.9,0,7.3C1001.7,149.7,1001.8,149.7,1001.9,149.7z M978.8,160.4
			l-0.2,0.2L978.8,160.4l0.2-0.2L978.8,160.4z M1026.1,155.5c-0.4-3.4-2-7.5-3.7-11.4c-0.5-1.1-1.3-1.6-1.9-0.2c-1.1,2.5-2,5-3,7.5
			c-0.3,0.9,0,1.5,0.7,2.1c2,1.6,4.1,3.1,6.1,4.7c0.4,0.3,0.9,0.8,1.4,0.5c0.3-0.3,0.3-1,0.4-1.5
			C1026.2,157,1026.1,156.7,1026.1,155.5z M1073.3,144.7c0.2-1.5-0.3-2.7-1.6-3.4c-1.3-0.8-2.3,0.1-3.2,0.8
			c-2.3,1.9-2.8,4.5-3.4,7.1c-0.2,0.9-0.8,1.9,0.2,2.6c1,0.7,2.2,0.5,3.1-0.1C1070.9,150.1,1072.8,147.9,1073.3,144.7z
			 M1020.5,161.5c-0.6-0.6-1.2-1.1-1.8-1.6c-1-0.8-1.7-2.2-3.3-1.6c-0.2,0.1-0.4,0.4-0.3,0.6c0.3,1.5,1.6,2,2.8,2.6
			c0.6,0.3,1.3,0.3,1.9,0.4C1019.9,162,1020.2,161.7,1020.5,161.5z"/>
		<path class="st0" d="M945.6,190.5c-5.2,0-10.3,0-15.5,0c-0.8,0-1.6,0-2.4,0c-1.5-0.1-2.9-0.6-3.1-2.1c-0.2-1.7,1.4-1.7,2.6-1.9
			c4.8-1.1,9.5-2.1,14.3-3.2c1.3-0.3,2.6-0.6,4-1c0.4-0.1,0.8-0.4,0.7-0.8c-0.1-0.5-0.5-0.5-0.9-0.5c-1,0-1.9,0-2.9,0
			c-4.4,0-8.7,0-13.1,0c-1,0-1.9,0-2.8-0.1c-1-0.1-2-0.5-1.8-1.7c0.1-0.9,0.9-1.3,1.8-1.3c2.7-0.1,5.4,0,8.2-0.1
			c3.2-0.1,3.4-0.3,3.5-3.6c0-1.1-0.1-2.2,0-3.3c0.1-1.9-0.7-3-2.4-3.8c-2.5-1.1-4.7-2.7-6.5-4.8c-4.3-5.3-4.5-11.1-2.2-17.3
			c1.3-3.5,3.5-6.5,6.4-8.8c1.7-1.4,2.1-2.4,0.4-4.2c-2.3-2.4-2.9-5.6-1.8-8.8c3.7-11.1,14.8-16.8,25.7-13.2c2,0.7,3.6,1.9,4.9,3.5
			c2.5,3,2.4,6.7-0.3,9.5c-1.2,1.3-2.4,2.5-4.1,3.4c-1.4,0.7-2.6,0.7-3.6-0.6c-1.1-1.4-0.5-2.5,0.6-3.5c0.8-0.7,1.7-1.3,2.5-2.1
			c1.9-1.9,1.8-3.1-0.6-4.4c-4.5-2.6-9-1.7-13.2,0.5c-3.1,1.6-5.2,4.3-6.6,7.5c-1.2,2.9-0.1,5.4,2.9,6.4c1.7,0.5,3.4,1,5.2,1
			c1.3,0,2.4,0.3,3.5,0.9c1.1,0.6,1.6,1.5,1.4,2.7c-0.2,1.2-1,1.9-2.2,2c-0.8,0.1-1.7,0.2-2.4,0c-6.6-1.3-15.4,7.9-14.8,15.8
			c0.3,4.6,2.8,7.8,7.1,9.6c4.2,1.8,8.5,1.4,12.7,0.2c4.4-1.2,8.4-3.1,12.2-5.6c1.1-0.7,2.3-1.5,3.4-2.2c1.2-0.7,2.4-0.8,3.2,0.5
			c0.8,1.2,0.8,2.7-0.4,3.7c-1.2,1-2.5,2.1-4,2.8c-2.9,1.6-5.8,3.1-8.8,4.3c-1.9,0.8-2.8,1.8-2.8,3.9c0.1,9.3-0.7,7.7,7.4,7.8
			c1.5,0,3,0,4.5,0.1c0.7,0,1.4,0.4,1.6,1.1c0.3,0.9-0.3,1.6-1,2c-1.3,0.9-2.8,1-4.2,1.3c-4.5,1.1-9,2-13.5,3
			c-0.9,0.2-2.6,0.2-2.5,0.9c0.1,0.9,1.6,0.5,2.4,0.5c4.3,0,8.7,0,13.1,0c0.8,0,1.6,0,2.4,0c1.5,0.1,3.5-0.2,3.4,1.9
			c-0.1,1.9-2,2-3.5,2c-4.1,0.1-8.2,0-12.2,0C949.4,190.5,947.5,190.5,945.6,190.5z M945.9,177.6c0.5,0,1.1,0,1.6,0
			c3.3-0.1,3.4-0.3,3.6-3.5c0-0.5,0-1.1,0-1.6c0-4.4,0-4.4-4.3-4c-0.9,0.1-1.9,0.1-2.9,0.1c-3.4,0.1-3.5,0.2-3.6,3.4
			C940.2,177.6,940.2,177.6,945.9,177.6z"/>
		<path class="st0" d="M1013.9,184.3c0.2,1.9,0.4,3.1,0.5,4.3c0.1,0.7-0.2,1.4-0.9,1.6c-1,0.2-1.6-0.3-1.8-1.2
			c-0.2-1-0.2-2.1-0.3-3.2c0-0.5,0.2-1-0.3-1.4c-0.3,0.5-0.6,0.9-0.7,1.4c-0.5,1.1-0.7,2.3-1.3,3.4c-0.9,1.6-2.2,1.6-3.1,0
			c-0.2-0.3-0.2-0.8-0.4-1.1c-0.4-0.8-0.3-2.3-1.3-2.2c-1.1,0.1-0.6,1.6-0.8,2.4c-0.1,0.8,0,1.8-1.1,1.9c-1.3,0.1-1.5-1-1.5-2
			c0.2-2.7,0.5-5.4,0.7-8.1c0.1-0.9,0.5-1.5,1.5-1.7c1.1-0.2,1.9,0.3,2.3,1.2c0.6,1.5,1.1,3,1.7,4.6c0.1,0.2,0.3,0.5,0.5,0.6
			c0.5,0.2,0.7-0.3,0.8-0.6c0.5-1.4,1-2.8,1.5-4.2c0.4-1.1,1.2-1.8,2.5-1.6c1.2,0.2,1.5,1.1,1.5,2.1
			C1013.9,182,1013.9,183.5,1013.9,184.3z"/>
		<path class="st0" d="M1003.1,115.7c0-1.3,0-2.7,0-4c0-0.7,0.2-1.3,1-1.6c0.8-0.2,1.3,0.2,1.7,0.8c0.8,1.1,1.5,2.2,2.3,3.3
			c0.5,0.6,0.9,1.6,1.8,1.3c0.6-0.2,0.3-1.2,0.4-1.8c0-0.7,0-1.4,0.1-2c0.1-0.7,0.3-1.4,1.1-1.4c0.8,0,1.2,0.7,1.3,1.3
			c0.1,3,0.2,5.9,0,8.9c-0.1,1.7-1.5,2.1-2.8,0.7c-1.2-1.3-2.1-2.8-3.2-4.2c-0.2-0.3-0.5-0.7-0.9-0.4c-0.2,0.1-0.2,0.5-0.2,0.7
			c-0.1,1.2-0.1,2.4-0.2,3.6c-0.1,0.6-0.6,1-1.1,1c-0.6,0-1.1-0.4-1.1-0.9c-0.1-1.7-0.2-3.5-0.3-5.2
			C1003,115.7,1003.1,115.7,1003.1,115.7z"/>
		<path class="st0" d="M1076.6,184.3c0-1.2,0-2.4,0-3.7c0-0.8,0-1.7,1-2c1.1-0.4,1.8,0.3,2.4,1c0.7,1,1.4,2,2.1,3
			c0.4,0.5,0.6,1.5,1.3,1.4c1-0.3,0.4-1.4,0.5-2.1c0.1-0.7,0-1.4,0.1-2c0.1-0.7,0.5-1.3,1.3-1.3c0.8,0,1.2,0.7,1.2,1.4
			c0,2.8,0,5.7,0,8.5c0,0.7-0.3,1.3-1,1.6c-1,0.4-1.5-0.2-2-0.9c-0.2-0.3-0.4-0.7-0.7-1c-1.2-1.3-1.5-3.2-3.2-4
			c-0.1,1.5-0.2,3-0.3,4.4c-0.1,0.9-0.4,1.7-1.4,1.6c-0.8-0.1-1.1-0.8-1.1-1.5C1076.7,187.3,1076.7,185.8,1076.6,184.3
			C1076.7,184.3,1076.7,184.3,1076.6,184.3z"/>
		<path class="st0" d="M1075.1,184.4c0,3.3-2.7,6.2-5.8,6.2c-3,0-5.7-3-5.7-6.3c0.1-3.5,2.5-6.1,5.8-6
			C1072.9,178.3,1075.1,180.7,1075.1,184.4z M1069.5,180.9c-1.7,0-2.5,1-2.5,3.3c-0.1,2.5,0.8,3.8,2.5,3.8c1.6,0,2.8-1.7,2.8-3.8
			C1072.2,182.4,1071,180.9,1069.5,180.9z"/>
		<path class="st0" d="M988.5,183.8c0.3-3.6,2.7-5.8,6.1-5.5c3,0.2,5.2,3,5,6.3c-0.2,3.7-2.9,6.4-6.2,6.1
			C990.5,190.3,988.2,187.1,988.5,183.8z M996.7,184.1c0-2.2-0.9-3.3-2.7-3.2c-1.7,0-2.7,1.3-2.8,3.3c0,2.1,1.3,3.8,2.8,3.8
			C995.6,187.9,996.7,186.3,996.7,184.1z"/>
		<path class="st0" d="M990.3,116.2c0-0.5,0-1.1,0-1.6c0.1-4.5,1.4-5.6,5.7-4.7c0.7,0.1,1.4,0.4,1.5,1.2c0.1,0.8-0.5,1.2-1.3,1.3
			c-0.3,0-0.5,0.1-0.8,0.1c-0.7,0.1-1.5,0.1-1.6,1c-0.1,0.9,0.6,1.1,1.3,1.2c0.8,0.2,1.7,0.4,1.5,1.5c-0.1,0.8-0.8,1-1.5,1.1
			c-0.7,0.1-1.4,0.4-1.4,1.2c0,0.8,0.7,1,1.4,1.1c0.5,0.1,1.1,0.1,1.6,0.3c0.7,0.2,1.2,0.7,1,1.5c-0.1,0.6-0.7,0.7-1.2,0.8
			c-0.1,0-0.3,0-0.4,0C990.8,122.8,990.3,122.3,990.3,116.2z"/>
		<path class="st0" d="M1028.2,118.6c-0.3,0.4-0.6,0.6-0.9,0.9c-0.6,0.7-1.1,1.5-1.8,2.2c-0.5,0.5-1.3,0.6-1.9,0.1
			c-0.6-0.4-0.1-1,0.1-1.4c0.2-0.4,0.4-0.7,0.6-1c1.9-2.2,2.1-4.4,0.1-6.8c-0.5-0.6-1.3-1.7-0.1-2.4c1-0.6,1.8,0.1,2.3,1
			c1,1.8,2,2.1,3.1,0.1c0.4-0.8,1-1.3,1.9-1.3c0.6,0,1.1,0.2,1,0.9c0,0.3-0.1,0.6-0.2,0.8c-2.7,2.9-2.4,5.7,0.1,8.5
			c0.5,0.5,0.7,1.3-0.1,1.7c-0.6,0.4-1.4,0.4-1.9-0.1c-0.6-0.7-1.1-1.5-1.7-2.3C1028.9,119.1,1028.6,118.9,1028.2,118.6z"/>
		<path class="st0" d="M1025.3,184c0-0.4,0-0.8,0-1.2c0-4.2,2.1-5.7,6.2-4.3c0.6,0.2,1,0.6,1,1.1c0,0.6-0.4,1-1,1.1
			c-0.3,0.1-0.5,0.1-0.8,0.2c-0.8,0.1-1.8,0.1-1.8,1.1c0,0.8,0.8,0.9,1.5,1.1c1.5,0.6,1.7,1.3,0,1.9c-0.8,0.3-1.6,0.4-1.6,1.5
			c0,1.3,1,1.4,2,1.5c0.8,0.1,1.8,0.1,1.8,1.2c0,1.3-1.2,1.3-2.1,1.3c-4.2,0.4-5-0.3-5.1-4.5C1025.3,185.3,1025.3,184.7,1025.3,184z
			"/>
		<path class="st0" d="M1014.7,115.9c0-0.4,0-0.8,0-1.2c0-4.7,1.3-5.8,5.7-4.8c0.7,0.1,1.4,0.4,1.4,1.2c0.1,0.8-0.6,1.2-1.3,1.3
			c-0.4,0.1-0.8,0.1-1.2,0.1c-0.8,0.1-1.8,0-1.7,1.2c0,0.9,0.8,0.9,1.5,1c0.8,0.1,1.8,0.1,1.9,1.2c0.2,1.4-1,1.3-1.9,1.5
			c-0.7,0.1-1.4,0.2-1.5,1.1c0,1.1,0.9,1.2,1.7,1.3c0.5,0.1,1.1,0.1,1.6,0.2c0.6,0.1,1,0.5,1,1.1c0,0.8-0.6,1.2-1.3,1.2
			c-0.7,0.1-1.3,0.1-2,0.1c-3.7,0-3.9-0.2-3.9-3.8C1014.6,117.5,1014.7,116.7,1014.7,115.9z"/>
		<path class="st0" d="M1016.2,184.2c0-0.9,0-1.9,0-2.8c0-1.2-0.2-2.6,1.4-3c2-0.4,4.1-0.4,5.7,1.2c1,1,1.4,2.3,0.7,3.7
			c-0.2,0.5-0.4,1.2-0.8,1.4c-2.4,1.1-4.9,1.9-4.9,5.2c0,0.1-0.7,0.3-1,0.3c-0.6-0.1-0.9-0.6-1-1.1
			C1016.3,187.5,1016.3,185.8,1016.2,184.2C1016.3,184.2,1016.3,184.2,1016.2,184.2z M1021.1,182.1c-0.1-0.5-0.3-1-1-1
			c-0.8,0-1.1,0.5-1.1,1.3c0,0.7,0.1,1.4,1,1.2C1020.7,183.4,1021,182.8,1021.1,182.1z"/>
		<path class="st0" d="M984.4,190.6c-2.5,0-4.8-1.4-5.5-3.3c-0.9-2.5-1-5,0.9-7.3c1.6-1.9,3.7-2,5.9-1.6c0.9,0.2,1.6,0.6,1.4,1.6
			c-0.2,1.1-0.9,1-1.8,1c-3.5,0-4.4,0.9-4,3.8c0.3,2.4,1.3,3.2,4.2,3c0.8,0,1.7-0.5,1.9,0.7c0.2,1-0.7,1.4-1.4,1.7
			C985.4,190.4,984.7,190.5,984.4,190.6z"/>
		<path class="st0" d="M1038.2,178.2c1.2,0.1,2.4,0.1,3.6,0.2c0.6,0.1,1,0.4,1.1,1c0.1,0.6-0.2,1.2-0.7,1.2c-2.6,0.3-2.2,2.2-2.3,4
			c0,1.3,0,2.7-0.1,4c-0.1,0.8-0.5,1.6-1.5,1.5c-1,0-1.4-0.8-1.4-1.6c-0.1-1.5-0.1-3-0.1-4.4c0-1.5,0.1-3-2-3.4
			c-0.7-0.1-1.2-0.7-0.9-1.5c0.2-0.8,0.9-0.9,1.6-0.9C1036.4,178.3,1037.3,178.3,1038.2,178.2
			C1038.2,178.3,1038.2,178.3,1038.2,178.2z"/>
		<path class="st0" d="M977.1,110.9c-0.1,0.7-0.3,1.2-0.9,1.3c-2.4,0.2-2.2,1.9-2.2,3.6c0,1.5,0,3-0.1,4.5c0,0.8-0.3,1.7-1.4,1.6
			c-1.1-0.1-1.2-1-1.2-1.8c0-1.5-0.1-3,0-4.5c0-1.7,0.1-3.4-2.4-3.3c-0.5,0-1.1-0.3-1.1-1c0-0.6,0.3-1.1,0.9-1.2
			c2.5-0.5,5.1-0.5,7.6,0C976.7,110.2,976.9,110.7,977.1,110.9z"/>
		<path class="st0" d="M1039.3,109.7c0.9,0.1,2.1,0.1,3.3,0.3c0.6,0.1,1,0.5,1.1,1.1c0.1,0.6-0.2,1.1-0.9,1.1
			c-2.6,0-2.8,1.6-2.6,3.6c0,0.4,0.1,0.8,0,1.2c-0.4,1.6,1.1,4.7-1.4,4.6c-2.3-0.1-0.9-3.1-1.3-4.9c-0.1-0.5,0-1.1,0-1.6
			c0-1.5-0.2-2.7-2-2.9c-0.7-0.1-1.2-0.6-1-1.4c0.2-0.6,0.7-0.9,1.2-0.9C1036.8,109.8,1037.9,109.8,1039.3,109.7z"/>
		<path class="st0" d="M1057.8,179.4c0.1,0.6-0.2,1.2-0.8,1.3c-2.6,0.3-2.2,2.2-2.3,4c0,1.5-0.1,3-0.2,4.4c-0.1,0.7-0.6,1.2-1.5,1
			c-0.7-0.1-0.9-0.6-0.9-1.2c-0.1-1.8-0.1-3.5-0.1-5.3c0-1.5-0.1-2.7-2-2.9c-0.7-0.1-1.3-0.5-1.3-1.3c0-0.8,0.7-1.2,1.4-1.2
			c2,0,4,0,6.1,0C1056.9,178.4,1057.5,178.7,1057.8,179.4z"/>
		<path class="st0" d="M945.9,193.1c0.1,0,0.3,0,0.4,0c1.4,0.2,3.1-0.6,4.2,0.7c0.5,0.6-0.2,1.3-0.7,1.7c-1.5,1.4-3,2.8-5.3,2
			c-0.1,0-0.3-0.1-0.4-0.2c-1.4-0.8-3.3-1.6-3-3.3c0.3-1.5,2.3-0.7,3.6-0.8C945,193,945.5,193.1,945.9,193.1z"/>
		<path class="st0" d="M1062.1,184.6c0,1.5,0.1,3,0,4.4c0,0.7-0.5,1.3-1.3,1.3c-0.8,0-1.2-0.6-1.2-1.4c0-3,0-5.9,0-8.9
			c0-0.7,0.3-1.4,1.1-1.4c1.1-0.1,1.4,0.7,1.4,1.5C1062.1,181.6,1062.1,183.1,1062.1,184.6C1062.1,184.6,1062.1,184.6,1062.1,184.6z
			"/>
		<path class="st0" d="M1044.8,184.2c0-1.5-0.1-3,0-4.5c0-0.7,0.5-1.3,1.3-1.2c0.6,0.1,1,0.5,1.1,1c0.3,3.1,0.3,6.2,0,9.3
			c-0.1,0.7-0.6,1.2-1.4,1.2c-0.9-0.1-1.1-0.8-1.1-1.4C1044.7,187.2,1044.8,185.7,1044.8,184.2
			C1044.8,184.2,1044.8,184.2,1044.8,184.2z"/>
		<path class="st0" d="M1086.8,128.7c1.3,0.1,2,0.9,2.1,2.1c0,1.5-0.9,2.3-2.3,2.3c-1.2,0-2.1-0.9-2.1-2.1
			C1084.5,129.6,1085.5,129,1086.8,128.7z"/>
		<path class="st0" d="M979.3,130.8c-0.2,1.4-0.9,2.3-2.1,2.3c-1.4,0.1-2.3-0.7-2.4-2.2c0-1.2,0.7-2.1,1.9-2.2
			C978.2,128.7,978.9,129.7,979.3,130.8z"/>
	</g>
</g>
</svg>
