<svg xmlns="http://www.w3.org/2000/svg" id="Layer_1" viewBox="0 0 570 550"><style>.st0{fill-rule:evenodd;clip-rule:evenodd;fill:#231f20}</style><path d="M201.2 142c0-5.1-21.8-61.2-21.8-61.2s-6.2-24.2 1.7-12.9c7.9 11.2 25.8 56.2 25.8 56.2s7.3 14.1 7.9 18.5c.5 4.5-7.4 11.3-13.6-.6zm68.3-21.3c2.5-4.4 10.8-64.2 10.8-64.2s6.4-24.1 7.8-10.5c1.4 13.6-4.9 61.6-4.9 61.6s-.5 15.9-2.2 20.1c-1.7 4.2-11.9 6.3-11.5-7zm65.8 6.6c4.1-2.9 37.7-53 37.7-53s16.3-18.9 11.6-6c-4.7 12.9-31.3 53.3-31.3 53.3s-7.3 14-10.7 17.1c-3.4 3-13.4.4-7.3-11.4zm50.6 27.8c-9.5 9.3-.7 14.9 3.4 13 4.2-1.9 15.5-12.9 15.5-12.9s37.7-30.4 46.2-41.2c8.5-10.8-12.8 2.2-12.8 2.2s-47.4 37.4-52.3 38.9zm39.3 55.3c6.2-.6 72.2-34.8 72.2-34.8s28.8-10.7 16 .4c-12.7 11.1-65.4 39-65.4 39s-16.3 10.8-21.7 12c-5.4 1.3-14.7-7.4-1.1-16.6zm-304.5 25.5c-4.8-2.7-69.8-11.5-69.8-11.5s-26.2-6.8-11.4-8.4c14.8-1.5 67 5.1 67 5.1s17.2.5 21.7 2.3c4.7 1.9 7 12.9-7.5 12.5zm18.9-61.8c-2.6-4.8-52.4-47.4-52.4-47.4s-18.3-19.9-5-13.3c13.3 6.7 53.6 40.6 53.6 40.6s14.2 9.7 17 13.7c2.8 4.1-1.2 14.5-13.2 6.4zM439.3 272c5.7 2.5 80 4.6 80 4.6s30.4 4.6 13.9 8.1-76.1 2.3-76.1 2.3-19.4 1.5-24.8 0c-5.5-1.5-9.4-13.7 7-15zm-17.9 70c4.4 4.5 72.1 34.9 72.1 34.9s26.3 15.9 9.7 12.8c-16.6-3.1-71.2-27-71.2-27s-18.5-6-22.9-9.5c-4.4-3.6-3.3-16.2 12.3-11.2zm-58.2 55.1c-9.3-13.5-17.9-4.1-16.5 1.3 1.4 5.4 12.4 21.5 12.4 21.5s28.7 52.3 39.9 64.9c11.3 12.6.1-16 .1-16s-35.1-65.5-35.9-71.7zm-74.1 24.8c-1.9 5-1.3 69.4-1.3 69.4s-3 26.4-6.5 12.3c-3.6-14.2-4.6-65.9-4.6-65.9s-2-16.8-.9-21.5c1.2-4.6 11.6-8.4 13.3 5.7zm-74.5-7.2c-4.1 3.5-34.8 60.1-34.8 60.1s-15.4 21.7-11.7 7.5c3.7-14.1 28-59.8 28-59.8s6.4-15.6 9.7-19.2c3.2-3.5 14.1-1.7 8.8 11.4zM153.3 367c-4.7 1.6-49.9 39.3-49.9 39.3s-20.4 13.2-12.5 2.4c8-10.8 44-41.3 44-41.3s10.7-11.1 14.7-13c4-1.9 12.7 3.2 3.7 12.6zm-27.1-68.8c-5.2.3-62.1 26-62.1 26s-24.7 7.7-13.5-1 56.8-29.7 56.8-29.7 14.2-8.3 18.8-9.1c4.5-1 11.9 6.8 0 13.8zM256.5 148.1s67.1 0 83.4 12.2c16.3 12.2 30.5 24.4 43.4 34.6 12.9 10.1 21 31.9 24.4 53.6 3.4 21.7-4.8 68.5-8.1 78-3.4 9.5-10.2 23-26.5 31.1-16.3 8.1-62.4 27.2-70.5 31.2-8.1 4.1-33.9 10.1-55.6 4.7-21.7-5.4-28.5-14.9-40-16.3-11.5-1.3-21.7-14.3-31.1-29.8-9.5-15.6-33.2-46.8-33.2-78.7 0-31.9 11.5-51.5 34.6-80 22.9-28.4 54.2-34.6 79.2-40.6z" class="st0"/><path fill="#f6e24f" fill-rule="evenodd" d="M263.3 161.6s-38.6 6.8-69.1 46.8c-30.5 40-27.8 54.2-19.7 86.1 8.1 31.9 79.3 59.7 79.3 59.7s29.2 6.8 73.9-17c44.8-23.7 44.8-59 42-73.9-2.7-14.9-19.7-56.3-45.4-67.8-25.8-11.5-63.8-4.7-88.9 23-25.1 27.8-31.2 41.4-19.7 73.9 11.5 32.5 39.3 40.7 52.9 39.3 13.6-1.4 44.1-13.6 59.7-32.5 15.6-19 17.6-44.8.7-61.7-17-17-54.3-11.5-73.3-.7-19 10.9-17 25.8-14.3 45.4 2.7 19.7 26.5 23.7 38 21 11.5-2.8 37.2-19.7 32.5-35.3-4.7-15.6-26.4-22.4-31.9-20.3-5.4 2-15.6 3.4-13.5 25.7 0 0 2.7 11.6 5.4 4.8s2-16.3 12.2-15.6c10.2.7 21 0 17.6 10.8-3.4 10.9-23.1 26.5-34.5 21.1-11.5-5.4-23.8-11.5-17-34.6 6.8-23 35.3-26.4 50.9-23.7 15.6 2.7 30.5 12.9 32.5 29.8 2.1 16.9-14.2 28.5-30.5 38s-41.4 23-57.6 8.1c-16.3-14.9-30.5-29.2-27.1-52.2 3.4-23 41.4-54.3 60.4-57.6 19-3.4 56.3 8.8 70.5 27.8 14.2 19 14.9 54.9 4.1 71.9-10.9 17-42 40-83.4 43.4 0 0-55.6-10.2-74.6-35.3-19-25.1-25.1-44.8-8.8-75.3s50.2-52.2 78-57.6c27.8-5.4 57-8.8 82.7 3.4 25.7 12.2 35.2 23 46.1 63 10.8 40-.7 80.7-9.5 89.5-8.8 8.8-22.4 24.4-43.4 28.5-21 4.1-31.9 9.5-44.1 15.6-12.2 6.1-41.4 10.2-63 2.7-21.7-7.4-50.2-32.5-56.3-50.2-6.1-17.6-25.8-26.4-24.4-63.7 1.4-37.3 19.7-59.7 29.1-67.8 9.5-8.1 23.1-23.1 34.6-27.1 11.7-4 65.9-22.9 46.9-9.4z" clip-rule="evenodd"/></svg>