<svg xmlns="http://www.w3.org/2000/svg" width="180" height="79"><g fill="none" fill-rule="evenodd"><path fill="#F6E24F" stroke="#231F20" stroke-width="2.2795" d="M5.1 57.8l1 6.8h4.6c1.6-4 5.4-6.8 9.9-6.8s8.3 2.8 9.9 6.7h2.7c1.6-3.9 5.4-6.7 9.9-6.7s8.3 2.8 9.9 6.7h4.1c1.6-3.9 5.4-6.7 9.9-6.7s8.3 2.8 9.9 6.7h3.8c1.6-3.9 5.4-6.7 9.9-6.7s8.3 2.8 9.9 6.7h4.5c1.6-3.9 5.4-6.7 9.9-6.7s8.3 2.8 9.9 6.7h4c1.6-3.9 5.4-6.7 9.9-6.7s8.4 2.8 9.9 6.8h24.6l2.3-16.5s-.1-1.7-.9-2.8c-.8-1.1-.3-4.3-.3-4.3s.3-.7-2.1-1.4c-2.5-.7-19.4-5.8-19.4-5.8l-6.7-26.7-5.9-5.6-120.6-.1S8.8 6.7 6.6 21.5C4.4 36.3 4.7 50.1 4.7 50.1l.4 7.7z"/><path fill="#231F20" d="M175.4 46.5c-.1-.4-.3-.8-.5-1.2-.8-1.1-.3-4.3-.3-4.3s.3-.7-2.1-1.4c-.6-.2-2-.6-3.8-1.1 1.5.8 2.7 1.5 3 1.9.7 1 .1 3.3.1 3.6 0 .4 0 .9 1 1.3.3.1 1.3.7 2.6 1.2zM1.3 57.9h6.6s1-.1 1.2.7c.2.8.9 4.7.9 4.7s.3 1.1-1.2 1.4c-1.4.3-6.7.1-6.7.1S.7 64.3.5 63.2c-.2-1.1-.3-4.6-.3-4.6s.2-.7 1.1-.7zM143.5 4.6h5.8s1.6.2 1.7 1.5c.1 1.3-.5 3.7-.3 4.3.2.7.5 2.3-.5 2.9-.5.3-1.4.7-2.2 1l-1.8-7.1-2.7-2.6zM169.4 64l.1-4.3s0-1.3 1.6-1.5c1.5-.2 6.6-.3 6.6-.3s1.5.3 1.4 1.5c-.1 1.2-1 5.1-1 5.1s.2.6-1.1.6-7.5-.3-7.5-.3l-.1-.8z"/><path fill="#B0D7E4" stroke="#231F20" stroke-width="1.5197" d="M17.3 15.7h13.3s1.3-.1 1.2 1c-.1 1.1-.7 16.9-.7 16.9s0 .8-.9.9l-16.6-.1s-.6-.3-.7-.9c-.1-.6.8-10.4.9-11.7.3-1.2 1.4-4.8 3.5-6.1zm19.1-.1H54s.9.1.8.8c-.1.7-1 14.6-.5 17.1 0 0 .2 1.1-.8 1.1s-16.8.1-16.8.1-.8-.2-.9-.7c0-.6-.4-9.1-.5-12.1 0-3 .1-5 .1-5s-.1-1.2 1-1.3zm25.1.1h14s.7-.1.9.8c.1.9-.5 16.8-.5 16.8s.1 1.3-.7 1.3h-16s-.8.3-.9-1.1c-.1-1.5.2-9.6.5-10.6s1-5.4 2.7-7.2zm19.6.1h17.4s1.1-.1.9.8c-.2.8-.8 7-.8 9.4v7.7s0 .9-.7.9-16.3-.1-16.3-.1-.7-.4-.8-1.1c-.1-.7-1-8.8-.8-12.3.1-3.5.3-4.3.3-4.3s-.1-1 .8-1zm22.5-.1h17.2s.7.1.7 1v17.2s-.1.7-.7.7c-.5 0-17.3.1-17.3.1s-.8-.1-.9-.9c0-.8.1-13.6 0-14.8-.1-1.2-.2-2.7-.2-2.7s.2-.7 1.2-.6zm21.9 0l14.8-.2s.8 0 .6.5c-.1.5.1 2.2.1 3 0 .8.7 2.6.9 3.6.3 1 1.2 6.3 1.5 7.8.3 1.5.3 3.2.3 3.2s.3.7-.7.8c-.9.1-17.4.1-17.4.1s-.9 0-.9-.7.2-9.8.3-11.7c.1-1.9-.1-5.7-.1-5.7s-.1-.3.6-.7z"/><g fill="#231F20"><path d="M22.9 20.1s.6.2.6.4v.4s.6.4.9.9c.2.5.2 1.6.2 1.6s.4.7.8.8c.4.1.6.4.6.6 0 .2-.5.3-.5.3l.1.3s.1.3.1.4c0 .2 0 .2-.2.3H25s-.1.4.1.4h.6s0 .5-.3.5c0 0 0 .5-.3.7-.3.2-1.1.3-1.5.3h-1.2s-.3 0-.3.4-.1 1.5-.1 1.5.3.1.7 0h1s.7 0 .9.9c.2.9 1.1 3.7 1.1 3.7l-6.2.1-.1.9s-.1.4.3.4c.4.1 7.3.8 7.3.8s.4-.3.6-.5c.2-.2.7-.3.6 0-.1.3-.7.7-.7.7h1.4s.4.3.1.4c-.3.1-1.1.1-1.1.1l.8.6s0 .4-.5.3l-.8-.4.4.6s.1.2-.1.2c-.3 0-.9-.7-.9-.7s.3.9 0 .8c-.2-.1-.9-1-.9-1l-9.4-1s-.8-.2-.5-.8c.2-.6 2.7-5.5 2.7-5.5s.4-.4.7-.4c.3 0 .5-.2.5-.4s.2-2.1.2-2.1l-1.7.1s-1.3-.5-1.8-1.5c-.5-.9-1.1-1.1-1.2-2-.1-.8.1-1.7.1-2.3 0-.6.9-1.6 1.4-1.7.5-.1 1.4-.5 2-.5 1 .4 4 .4 4 .4zM136.2 20.1s.6.2.6.4v.4s.6.4.9.9c.2.5.2 1.6.2 1.6s.4.7.8.8c.4.1.6.4.6.6 0 .2-.5.3-.5.3l.1.3s.1.3.1.4c0 .2 0 .2-.2.3h-.5s-.1.4.1.4h.6s0 .5-.3.5c0 0 0 .5-.3.7-.3.2-1.1.3-1.5.3h-1.2s-.3 0-.3.4-.1 1.5-.1 1.5.3.1.7 0h1s.7 0 .9.9c.2.9 1.1 3.7 1.1 3.7l-6.2.1-.1.9s-.1.4.3.4c.4.1 7.3.8 7.3.8s.4-.3.6-.5c.2-.2.7-.3.6 0-.1.3-.7.7-.7.7h1.4s.4.3.1.4c-.3.1-1.1.1-1.1.1l.8.6s0 .4-.5.3l-.8-.4.4.6s.1.2-.1.2c-.3 0-.9-.7-.9-.7s.3.9 0 .8c-.2-.1-.9-1-.9-1l-9.4-1s-.8-.2-.6-.8c.2-.6 2.7-5.5 2.7-5.5s.4-.4.7-.4c.3 0 .6-.2.6-.4s.2-2.1.2-2.1l-1.7.1s-1.3-.5-1.8-1.5c-.5-.9-1.1-1.1-1.2-2-.1-.8.1-1.7.1-2.3 0-.6.9-1.6 1.4-1.7.5-.1 1.4-.5 2-.5 1 .4 4 .4 4 .4zM90.8 20s.6.2.6.4v.4s.6.4.9.9c.2.5.2 1.6.2 1.6s.4.7.8.8c.4.1.6.4.6.6 0 .2-.5.3-.5.3l.1.3s.1.3.1.4c0 .2 0 .2-.2.3h-.5s-.1.4.1.4h.6s0 .5-.3.5c0 0 0 .5-.3.7-.3.2-1.1.3-1.5.3h-1.2s-.3 0-.3.4-.1 1.5-.1 1.5.3.1.7 0h1s.7 0 .9.9c.2.9 1.1 3.7 1.1 3.7l-6.2.1-.1.9s-.1.4.3.4c.4.1 7.3.8 7.3.8s.4-.3.6-.5c.2-.2.7-.3.6 0-.1.3-.7.7-.7.7h1.4s.4.3.1.4c-.3.1-1.1.1-1.1.1l.8.6s0 .4-.5.3l-.8-.4.4.6s.1.2-.1.2-.9-.7-.9-.7.3.9 0 .8c-.2-.1-.9-1-.9-1l-9.4-1s-.8-.2-.5-.8c.2-.6 2.7-5.5 2.7-5.5s.4-.4.7-.4c.3 0 .6-.2.6-.4s.2-2.1.2-2.1l-1.7.1s-1.3-.5-1.8-1.5-1.1-1.1-1.2-2c-.1-.8.1-1.7.1-2.3 0-.6.9-1.6 1.4-1.7.5-.1 1.4-.5 2-.5.9.4 3.9.4 3.9.4zM113.7 20.2s.6.2.6.4v.4s.6.4.9.9c.2.5.2 1.6.2 1.6s.4.7.8.8c.4.1.6.4.6.6 0 .2-.5.3-.5.3l.1.3s.1.3.1.4c0 .2 0 .2-.2.3h-.5s-.1.4.1.4h.6s0 .5-.3.5c0 0 0 .5-.3.7-.3.2-1.1.3-1.5.3h-1.2s-.3 0-.3.4-.1 1.5-.1 1.5.3.1.7 0h1s.7 0 .9.9c.2.9 1.1 3.7 1.1 3.7l-6.2.1-.1.9s-.1.4.3.4c.4.1 7.3.8 7.3.8s.4-.3.6-.5c.2-.2.7-.3.6 0-.1.3-.7.7-.7.7h1.4s.4.3.1.4c-.3.1-1.1.1-1.1.1l.8.6s0 .4-.5.3l-.8-.4.4.6s.1.2-.1.2c-.3 0-.9-.7-.9-.7s.3.9 0 .8c-.2-.1-.9-1-.9-1l-9.4-1s-.8-.2-.6-.8c.2-.6 2.7-5.5 2.7-5.5s.4-.4.7-.4c.3 0 .6-.2.6-.4s.2-2.1.2-2.1l-1.7.1s-1.3-.5-1.8-1.5-1.1-1.1-1.2-2c-.1-.8.1-1.7.1-2.3 0-.6.9-1.6 1.4-1.7.5-.1 1.4-.5 2-.5 1 .4 4 .4 4 .4zM44.3 20.4s.6.2.6.4v.4s.6.4.9.9c.2.5.2 1.6.2 1.6s.4.7.8.8c.4.1.6.4.6.6 0 .2-.5.3-.5.3l.1.3s.1.3.1.4c0 .2 0 .2-.2.3h-.5s-.1.4.1.4h.6s0 .5-.3.5c0 0 0 .5-.3.7-.3.2-1.1.3-1.5.3h-1.2s-.3 0-.3.4-.1 1.5-.1 1.5.3.1.7 0h1s.7 0 .9.9c.2.9 1.1 3.7 1.1 3.7l-6.2.1-.1.9s-.1.4.3.4c.4.1 7.3.8 7.3.8s.4-.3.6-.5c.2-.2.7-.3.6 0-.1.3-.7.7-.7.7h1.4s.4.3.1.4c-.3.1-1.1.1-1.1.1l.8.6s0 .4-.5.3l-.8-.4.4.6s.1.2-.1.2c-.3 0-.9-.7-.9-.7s.3.9 0 .8c-.2-.1-.9-1-.9-1l-9.4-1s-.8-.2-.6-.8c.2-.6 2.7-5.5 2.7-5.5s.4-.4.7-.4c.3 0 .6-.2.6-.4s.2-2.1.2-2.1l-1.7.1s-1.3-.5-1.8-1.5c-.5-.9-1.1-1.1-1.2-2-.1-.8.1-1.7.1-2.3 0-.6.9-1.6 1.4-1.7.5-.1 1.4-.5 2-.5 1 .4 4 .4 4 .4zM67.8 20.4s.6.2.6.4v.4s.6.4.9.9c.2.5.2 1.6.2 1.6s.4.7.8.8c.4.1.6.4.6.6 0 .2-.5.3-.5.3l.1.3s.1.3.1.4c0 .2 0 .2-.2.3h-.5s-.1.4.1.4h.6s0 .5-.3.5c0 0 0 .5-.3.7-.3.2-1.1.3-1.5.3h-1.2s-.3 0-.3.4-.1 1.5-.1 1.5.3.1.7 0h1s.7 0 .9.9c.2.9 1.1 3.7 1.1 3.7l-6.2.1-.1.9s-.1.4.3.4c.4.1 7.3.8 7.3.8s.4-.3.6-.5c.2-.2.7-.3.6 0-.1.3-.7.7-.7.7h1.4s.4.3.1.4c-.3.1-1.1.1-1.1.1l.9.6s0 .4-.5.3l-.8-.4.4.6s.1.2-.1.2c-.3 0-.9-.7-.9-.7s.3.9 0 .8c-.2-.1-.9-1-.9-1l-9.4-1s-.8-.2-.6-.8c.2-.6 2.7-5.5 2.7-5.5s.4-.4.7-.4c.3 0 .6-.2.6-.4s.2-2.1.2-2.1l-1.7.1s-1.3-.5-1.8-1.5-1.1-1.1-1.2-2c-.1-.8.1-1.7.1-2.3 0-.6.9-1.6 1.4-1.7.5-.1 1.4-.5 2-.5.9.4 3.9.4 3.9.4z"/></g><path fill="#231F20" d="M27.5 60.3l-.1 2.5s-.5.3-1.2.9c-.7.5-.4.5-.9.8-.5.3-1.2.9-1.2.9s.2 1.5-.2 3.2c-.4 1.7-.6 2.7-.6 3.6-.1.9.3 1.8.3 1.8s1 .9 1.4 1.1c.4.2.9.7 1.7.9.8.2 1.7 1 .9 1.3-.9.3-1.9.4-2.8 0-1-.4-1.2-.5-1.5-.3-.3.3-.8.7-1.5.4-.7-.3-.6-.7-.5-1.6.1-.9.5-1.8.4-2.5-.2-.7-.4-1.8-.7-2.8-.2-1.1-.4-2.6-.4-2.6s-2.4.8-2.8 2.9c0 0-.1 2.6.1 2.9.1.3.7 1.4.7 1.4s.3.6-.3.5c-.6-.1-1.4-.4-1.7-.6-.3-.3-.4-.9-.8-1.7-.4-.8-1-1.9-1.1-2.2-.2-.3-.7-1.2 0-1.5.7-.3 2.8-1.5 3.3-2.5.5-.9 2-4.5 5.3-5.7 0 0 .6-.2.2-.4-.4-.3-1.5-1.6-1.5-1.9v-1l.2-.3c1.9.4 3.8 1.2 5.3 2.5zm9.3 14.4s1.2 1.9 1.4 2.1c.3.3.9.7.9.7s1.1.1.9.6c-.2.5-2 .5-2.8-.1-.8-.6-2-1.1-2.7-1.2-.7-.1-1.3-1-.9-1.6.4-.6.8-1.1 1.1-2.3.2-1.2.4-4.7 1.2-6.4.8-1.7 1.5-2.5 1.5-2.5l.4-4.7c1.6-.9 3.4-1.4 5.3-1.4 1.8 0 3.6.5 5.1 1.3l.3 1.1s.2 1.2.3 2.1c.1.8.3 1.6.6 2.3.3.6 2 4.9 2.2 6 .3 1 .8 2.4.8 2.4s.6.9 1.5 1.1c.9.1 2.5 0 2.5 0s1-.1.5.4-2.1.9-2.7 1.3c-.6.4-.8 1.1-1.5 1.1-.6 0-1.7.3-1.7-.4s.4-1.3-.6-2.5-3.5-4.4-4-6c-.5-1.6-.8-3.5-.9-4-.1-.5-.4-1.2-1.1-2-.7-.8-1.1-1.7-1.1-1.7s-.3-.5-.5-.1-1.6 3.1-1.6 3.1l-.8 1.5s0 .7-.4 1.2-.9.8-.9 1.1c0 .3-.3 1.7-.7 2.9-.4 1.2-1.5 3-1.5 3s-.5.7-.1 1.6zm23.6 0c-.4-.9.3-1.9.3-1.9s1.1-1.8 1.5-3c.4-1.2.7-2.6.7-2.9 0-.3.5-.6.9-1.1.4-.5.4-1.2.4-1.2l.8-1.5s1.4-2.7 1.6-3.1c.2-.4.5.1.5.1s.4.9 1.1 1.7c.7.8.9 1.5 1.1 2 .1.5.4 2.4.9 4s3 4.8 4 6c1 1.2.6 1.8.6 2.5s1.1.4 1.7.4c.6 0 .8-.7 1.5-1.1.6-.4 2.2-.8 2.7-1.3s-.5-.4-.5-.4-1.6.2-2.5 0c-.9-.1-1.5-1.1-1.5-1.1s-.5-1.3-.8-2.4c-.3-1-1.9-5.3-2.2-6-.3-.6-.5-1.4-.6-2.3-.1-.8-.3-2.1-.3-2.1l-.4-1.3c-1.4-.7-2.9-1-4.6-1-2.1 0-4.1.6-5.7 1.6L61 64s-.7.8-1.5 2.5-1 5.2-1.2 6.4c-.2 1.2-.7 1.7-1.1 2.3-.4.6.1 1.5.9 1.6.8.1 1.9.6 2.7 1.2.8.6 2.6.5 2.8.1.2-.5-.9-.6-.9-.6s-.7-.5-.9-.7c-.3-.3-1.4-2.1-1.4-2.1zm23.9 0s1.2 1.9 1.4 2.1c.3.3.9.7.9.7s1.1.1.9.6c-.2.5-2 .5-2.8-.1-.8-.6-2-1.1-2.7-1.2-.8-.1-1.3-1-.9-1.6.4-.6.8-1.1 1.1-2.3.2-1.2.4-4.7 1.2-6.4.8-1.7 1.5-2.5 1.5-2.5l.4-4.7c1.6-.9 3.4-1.4 5.3-1.4 1.8 0 3.5.4 5 1.2l.3 1.1s.2 1.2.3 2.1c.1.8.3 1.6.6 2.3.3.6 2 4.9 2.2 6 .3 1 .8 2.4.8 2.4s.6.9 1.5 1.1c.9.1 2.5 0 2.5 0s1-.1.5.4-2.1.9-2.7 1.3c-.6.4-.8 1.1-1.5 1.1-.6 0-1.7.3-1.7-.4s.4-1.3-.6-2.5-3.5-4.4-4-6c-.5-1.6-.8-3.5-.9-4-.1-.5-.4-1.2-1.1-2-.7-.8-1.1-1.7-1.1-1.7s-.3-.5-.5-.1-1.6 3.1-1.6 3.1l-.8 1.5s0 .7-.4 1.2-.9.8-.9 1.1c0 .3-.3 1.7-.7 2.9-.4 1.2-1.5 3-1.5 3s-.4.8 0 1.7zm23.7 0c-.4-.9.3-1.9.3-1.9s1.1-1.8 1.5-3c.4-1.2.7-2.6.7-2.9 0-.3.5-.6.9-1.1.4-.5.4-1.2.4-1.2l.8-1.5s1.4-2.7 1.6-3.1c.2-.4.5.1.5.1s.4.9 1.1 1.7c.7.8.9 1.5 1.1 2 .1.5.4 2.4.9 4s3 4.8 4 6c1 1.2.6 1.8.6 2.5s1.1.4 1.7.4c.6 0 .8-.7 1.5-1.1.6-.4 2.2-.8 2.7-1.3s-.5-.4-.5-.4-1.6.2-2.5 0c-.9-.1-1.5-1.1-1.5-1.1s-.5-1.3-.8-2.4c-.3-1-1.9-5.3-2.2-6-.3-.6-.5-1.4-.6-2.3-.1-.8-.3-2.1-.3-2.1l-.5-1.5c-1.3-.6-2.8-.9-4.3-.9-2.2 0-4.3.7-6 1.8l-.4 4.3s-.7.8-1.5 2.5-1 5.2-1.2 6.4c-.2 1.2-.7 1.7-1.1 2.3-.4.6.1 1.5.9 1.6.8.1 1.9.6 2.7 1.2.8.6 2.6.5 2.8.1.2-.5-.9-.6-.9-.6s-.7-.5-.9-.7c-.3 0-1.5-1.8-1.5-1.8zm34.7-14.4l-.1 2.5s-.5.3-1.2.9c-.7.5-.4.5-.9.8-.5.3-1.2.9-1.2.9s.2 1.5-.2 3.2c-.4 1.7-.6 2.7-.6 3.6-.1.9.3 1.8.3 1.8s1 .9 1.4 1.1c.4.2.9.7 1.7.9.8.2 1.7 1 .9 1.3-.9.3-1.9.4-2.8 0-1-.4-1.2-.5-1.5-.3-.3.3-.8.7-1.5.4-.7-.3-.6-.7-.5-1.6.1-.9.5-1.8.4-2.5-.2-.7-.4-1.8-.7-2.8-.2-1.1-.4-2.6-.4-2.6s-2.4.8-2.8 2.9c0 0-.1 2.6.1 2.9.1.3.7 1.4.7 1.4s.3.6-.3.5c-.6-.1-1.4-.4-1.7-.6-.3-.3-.4-.9-.8-1.7-.4-.8-1-1.9-1.1-2.2-.2-.3-.7-1.2 0-1.5.7-.3 2.8-1.5 3.3-2.5.5-.9 2-4.5 5.3-5.7 0 0 .6-.2.2-.4-.4-.3-1.5-1.6-1.5-1.9v-1l.1-.2c.6-.1 1.1-.1 1.7-.1 1.2 0 2.4.2 3.5.6.1.1.2.2.3.2.1.3-.1 1.7-.1 1.7zM15.8 50.9v-6.2h-2.3v-.8h5.6v.8h-2.3v6.2h-1zm4.3 0v-7.1h.9v2.9h3.7v-2.9h.9v7.1h-.9v-3.3H21v3.3h-.9zm7.1 0v-7.1h5.1v.8h-4.2v2.2H32v.8h-3.9V50h4.3v.8h-5.2v.1zm10.5 0l-1.9-7.1h1l1.1 4.6c.1.5.2 1 .3 1.4.2-.8.3-1.2.3-1.3l1.3-4.8h1.1l1 3.6c.3.9.4 1.7.5 2.5.1-.4.2-1 .4-1.5l1.1-4.5h.9l-1.9 7.1H42l-1.5-5.4c-.1-.5-.2-.7-.2-.8-.1.3-.1.6-.2.8l-1.5 5.4h-.9zm7 0h1l.8-2.1h3l.8 2.1h1.1l-2.9-7.1h-1l-2.8 7.1zm2-2.9l.8-2.1c.2-.4.3-.9.4-1.3.1.4.3.9.5 1.5l.7 2h-2.4V48zm5.3 2.9v-7.1h.9V50h3.5v.8H52v.1zm5.5 0v-7.1h.9v3.5l3.5-3.5h1.3l-3 2.9 3.1 4.2h-1.2l-2.5-3.6-1.2 1.1v2.4h-.9v.1zm6.7 0v-7.1h.9v7.1h-.9zm2.6 0v-7.1h1l3.7 5.5v-5.5h.9v7.1h-1l-3.7-5.5v5.5h-.9zm10.4-2.8v-.8h3v2.6c-.5.4-.9.6-1.4.8-.5.2-1 .3-1.5.3-.7 0-1.3-.1-1.9-.4-.6-.3-1-.7-1.3-1.3-.3-.6-.4-1.2-.4-1.9s.1-1.3.4-1.9c.3-.6.7-1 1.2-1.3.5-.3 1.2-.4 1.9-.4.5 0 1 .1 1.4.2.4.2.7.4 1 .7.2.3.4.7.5 1.2l-.8.2c-.1-.4-.2-.6-.4-.8-.2-.2-.4-.4-.7-.5-.3-.1-.6-.2-1-.2s-.8.1-1.1.2c-.3.1-.6.3-.8.5-.2.2-.3.4-.4.7-.2.4-.3.9-.3 1.4 0 .6.1 1.2.3 1.6.2.4.5.7.9.9.4.2.9.3 1.3.3s.8-.1 1.2-.2c.4-.2.7-.3.9-.5v-1.3h-2v-.1zm6.8.5l.9-.1c0 .4.1.6.3.9.2.2.4.4.7.5.3.1.7.2 1.1.2.4 0 .7-.1.9-.2.3-.1.5-.3.6-.4.1-.2.2-.4.2-.6 0-.2-.1-.4-.2-.6-.1-.2-.3-.3-.6-.4-.2-.1-.6-.2-1.3-.3-.6-.2-1.1-.3-1.4-.4-.3-.2-.6-.4-.8-.7-.2-.3-.2-.6-.2-.9 0-.4.1-.7.3-1 .2-.3.5-.5.9-.7.4-.2.8-.2 1.3-.2s1 .1 1.4.3c.4.2.7.4.9.7.2.3.3.7.3 1.1l-.9.1c0-.4-.2-.8-.5-1-.3-.2-.7-.3-1.2-.3-.6 0-1 .1-1.2.3-.3.2-.4.5-.4.7 0 .3.1.5.3.6.2.2.6.3 1.4.5.8.2 1.3.3 1.6.5.4.2.7.4.9.7.2.3.3.6.3 1s-.1.7-.3 1.1c-.2.3-.5.6-.9.8-.4.2-.9.3-1.4.3-.6 0-1.2-.1-1.6-.3-.4-.2-.8-.5-1-.8-.2-.5-.4-.9-.4-1.4zm11.9-.2l.9.2c-.2.8-.5 1.4-1.1 1.8-.5.4-1.1.6-1.9.6-.8 0-1.4-.2-1.9-.5s-.8-.8-1.1-1.3c-.2-.6-.4-1.2-.4-1.9s.1-1.4.4-1.9c.3-.5.7-1 1.2-1.2.5-.3 1.1-.4 1.7-.4.7 0 1.3.2 1.8.5.5.4.8.9 1 1.5l-.9.2c-.2-.5-.4-.9-.7-1.1-.3-.2-.7-.4-1.2-.4s-1 .1-1.4.4c-.4.3-.6.6-.8 1-.1.4-.2.9-.2 1.4 0 .6.1 1.1.3 1.6.2.4.4.8.8 1 .4.2.8.3 1.2.3.5 0 1-.2 1.3-.5.7-.3.9-.7 1-1.3zm2.2 2.5v-7.1h.9v2.9h3.7v-2.9h.9v7.1h-.9v-3.3H99v3.3h-.9zm6.8-3.5c0-1.2.3-2.1.9-2.8.6-.7 1.4-1 2.4-1 .6 0 1.2.2 1.8.5.5.3.9.7 1.2 1.3.3.6.4 1.2.4 1.9s-.1 1.4-.4 1.9c-.3.6-.7 1-1.2 1.3-.5.3-1.1.4-1.7.4-.7 0-1.3-.2-1.8-.5s-.9-.8-1.2-1.3c-.3-.5-.4-1-.4-1.7zm.9 0c0 .9.2 1.5.7 2 .5.5 1 .7 1.7.7s1.3-.2 1.7-.7c.5-.5.7-1.2.7-2.1 0-.6-.1-1.1-.3-1.5-.2-.4-.5-.8-.9-1-.4-.2-.8-.4-1.3-.4-.7 0-1.2.2-1.7.7-.3.5-.6 1.3-.6 2.3zm6.7 0c0-1.2.3-2.1.9-2.8.6-.7 1.4-1 2.4-1 .6 0 1.2.2 1.8.5.5.3.9.7 1.2 1.3.3.6.4 1.2.4 1.9s-.1 1.4-.4 1.9c-.3.6-.7 1-1.2 1.3-.5.3-1.1.4-1.7.4-.7 0-1.3-.2-1.8-.5s-.9-.8-1.2-1.3c-.2-.5-.4-1-.4-1.7zm1 0c0 .9.2 1.5.7 2 .5.5 1 .7 1.7.7s1.3-.2 1.7-.7c.5-.5.7-1.2.7-2.1 0-.6-.1-1.1-.3-1.5-.2-.4-.5-.8-.9-1-.4-.2-.8-.4-1.3-.4-.7 0-1.2.2-1.7.7-.4.5-.6 1.3-.6 2.3zm6.9 3.5v-7.1h.9V50h3.5v.8h-4.4v.1zm7.9 0v-7.1h2.6c.5 0 1 .1 1.3.2.3.1.6.4.8.7.2.3.3.6.3.9 0 .3-.1.6-.2.9-.2.3-.4.5-.7.6.4.1.8.3 1 .6.2.3.3.7.3 1.1 0 .3-.1.6-.2.9-.1.3-.3.5-.5.7-.2.2-.5.3-.8.3-.3.1-.7.1-1.1.1h-2.8v.1zm.9-4.1h1.5c.4 0 .7 0 .9-.1.2-.1.4-.2.5-.4.1-.2.2-.4.2-.6 0-.2-.1-.4-.2-.6-.1-.2-.3-.3-.5-.4-.2-.1-.6-.1-1.1-.1h-1.4v2.2h.1zm0 3.2h2.4c.2 0 .4-.1.5-.2.1-.1.3-.2.4-.4.1-.2.1-.4.1-.6 0-.3-.1-.5-.2-.7-.1-.2-.3-.3-.6-.4-.2-.1-.6-.1-1-.1h-1.6V50zm10.3-6.2h.9v4.1c0 .7-.1 1.3-.2 1.7-.2.4-.5.8-.9 1-.4.3-1 .4-1.6.4-.7 0-1.2-.1-1.6-.3-.4-.2-.7-.6-.9-1-.2-.4-.3-1-.3-1.8v-4.1h.9v4.1c0 .6.1 1.1.2 1.4.1.3.3.5.6.7.3.2.6.2 1 .2.7 0 1.2-.2 1.5-.5.3-.3.4-.9.4-1.8v-4.1zm2.2 4.8l.9-.1c0 .4.1.6.3.9.2.2.4.4.7.5.3.1.7.2 1.1.2.4 0 .7-.1.9-.2.3-.1.5-.3.6-.4.1-.2.2-.4.2-.6 0-.2-.1-.4-.2-.6-.1-.2-.3-.3-.6-.4-.2-.1-.6-.2-1.3-.3-.6-.2-1.1-.3-1.4-.4-.3-.2-.6-.4-.8-.7-.2-.3-.2-.6-.2-.9 0-.4.1-.7.3-1 .2-.3.5-.5.9-.7.4-.2.8-.2 1.3-.2s1 .1 1.4.3c.4.2.7.4.9.7.2.3.3.7.3 1.1l-.9.1c0-.4-.2-.8-.5-1-.3-.2-.7-.3-1.2-.3-.6 0-1 .1-1.2.3-.3.2-.4.5-.4.7 0 .3.1.5.3.6.2.2.6.3 1.4.5.8.2 1.3.3 1.6.5.4.2.7.4.9.7.2.3.3.6.3 1s-.1.7-.3 1.1c-.2.3-.5.6-.9.8-.4.2-.9.3-1.4.3-.6 0-1.2-.1-1.6-.3-.4-.2-.8-.5-1-.8-.2-.5-.4-.9-.4-1.4z"/></g></svg>